<?xml version="1.0" encoding="UTF-8" standalone="no"?><svg xmlns="http://www.w3.org/2000/svg" xmlns:xlink="http://www.w3.org/1999/xlink" contentStyleType="text/css" height="1282px" preserveAspectRatio="none" style="width:435px;height:1282px;background:#FFFFFF;" version="1.1" viewBox="0 0 435 1282" width="435px" zoomAndPan="magnify"><defs/><g><rect fill="none" height="11.7773" style="stroke:none;stroke-width:1.0;" width="195" x="227" y="10"/><text fill="#888888" font-family="sans-serif" font-size="10" lengthAdjust="spacing" textLength="195" x="227" y="19.668">UML Activity Diagram for Github Actions</text><rect fill="none" height="26.4883" id="_title" style="stroke:none;stroke-width:1.0;" width="402" x="15" y="27.7773"/><text fill="#000000" font-family="sans-serif" font-size="14" font-weight="bold" lengthAdjust="spacing" textLength="392" x="20" y="46.3125">Azure Pipeline / Database Update (azure_pipeline.yml)</text><rect fill="#DDDDDD" height="94.4414" id="_legend" rx="7.5" ry="7.5" style="stroke:#000000;stroke-width:1.0;" width="371" x="30.5" y="68.2656"/><text fill="#000000" font-family="sans-serif" font-size="14" lengthAdjust="spacing" textLength="54" x="36.5" y="87.8008">Legend:</text><text fill="#000000" font-family="sans-serif" font-size="14" lengthAdjust="spacing" textLength="190" x="36.5" y="104.2891">⨂ : termination of workflow</text><text fill="#000000" font-family="sans-serif" font-size="14" lengthAdjust="spacing" textLength="147" x="36.5" y="120.7773">⚫ : start of workflow</text><text fill="#000000" font-family="sans-serif" font-size="14" lengthAdjust="spacing" textLength="252" x="36.5" y="137.2656">◉ : stop and completion of workflow</text><text fill="#000000" font-family="sans-serif" font-size="14" lengthAdjust="spacing" textLength="359" x="36.5" y="153.7539">Yellow box with ... : repeation of succes if-else block</text><ellipse cx="217.5" cy="181.707" fill="#222222" rx="10" ry="10" style="stroke:#222222;stroke-width:1.0;"/><rect fill="#F1F1F1" height="34.1328" rx="12.5" ry="12.5" style="stroke:#181818;stroke-width:0.5;" width="345" x="45" y="211.707"/><text fill="#000000" font-family="sans-serif" font-size="12" lengthAdjust="spacing" textLength="325" x="55" y="233.3086">Checkout Github Branch (The Branch that got pushed to)</text><rect fill="#FFC0CB" height="34.1328" rx="12.5" ry="12.5" style="stroke:#181818;stroke-width:0.5;" width="49" x="193" y="314.3174"/><text fill="#000000" font-family="sans-serif" font-size="12" lengthAdjust="spacing" textLength="29" x="203" y="335.9189">Error</text><ellipse cx="217.5" cy="385.8838" fill="none" rx="10" ry="10" style="stroke:#222222;stroke-width:1.5;"/><line style="stroke:#222222;stroke-width:2.5;" x1="211.3128" x2="223.6872" y1="379.6966" y2="392.071"/><line style="stroke:#222222;stroke-width:2.5;" x1="223.6872" x2="211.3128" y1="379.6966" y2="392.071"/><polygon fill="#F1F1F1" points="199,265.8398,236,265.8398,248,277.8398,236,289.8398,199,289.8398,187,277.8398,199,265.8398" style="stroke:#181818;stroke-width:0.5;"/><text fill="#000000" font-family="sans-serif" font-size="11" lengthAdjust="spacing" textLength="15" x="221.5" y="300.4746">No</text><text fill="#000000" font-family="sans-serif" font-size="11" lengthAdjust="spacing" textLength="37" x="199" y="281.9971">Succes</text><text fill="#000000" font-family="sans-serif" font-size="11" lengthAdjust="spacing" textLength="19" x="248" y="275.5195">Yes</text><rect fill="#F1F1F1" height="34.1328" rx="12.5" ry="12.5" style="stroke:#181818;stroke-width:0.5;" width="133" x="151" y="437.8838"/><text fill="#000000" font-family="sans-serif" font-size="12" lengthAdjust="spacing" textLength="113" x="161" y="459.4854">Setup Dotnet 7 SDK</text><rect fill="#FFFF00" height="34.1328" rx="12.5" ry="12.5" style="stroke:#181818;stroke-width:0.5;" width="32" x="201.5" y="492.0166"/><text fill="#000000" font-family="sans-serif" font-size="12" lengthAdjust="spacing" textLength="12" x="211.5" y="513.6182">...</text><rect fill="#F1F1F1" height="34.1328" rx="12.5" ry="12.5" style="stroke:#181818;stroke-width:0.5;" width="309" x="63" y="546.1494"/><text fill="#000000" font-family="sans-serif" font-size="12" lengthAdjust="spacing" textLength="289" x="73" y="567.751">Install Dotnet Entity Framework (dotnet tool install)</text><rect fill="#FFFF00" height="34.1328" rx="12.5" ry="12.5" style="stroke:#181818;stroke-width:0.5;" width="32" x="201.5" y="600.2822"/><text fill="#000000" font-family="sans-serif" font-size="12" lengthAdjust="spacing" textLength="12" x="211.5" y="621.8838">...</text><rect fill="#F1F1F1" height="34.1328" rx="12.5" ry="12.5" style="stroke:#181818;stroke-width:0.5;" width="163" x="136" y="654.415"/><text fill="#000000" font-family="sans-serif" font-size="12" lengthAdjust="spacing" textLength="143" x="146" y="676.0166">Install Azure CLI tool (az)</text><rect fill="#FFFF00" height="34.1328" rx="12.5" ry="12.5" style="stroke:#181818;stroke-width:0.5;" width="32" x="201.5" y="708.5479"/><text fill="#000000" font-family="sans-serif" font-size="12" lengthAdjust="spacing" textLength="12" x="211.5" y="730.1494">...</text><rect fill="#F1F1F1" height="34.1328" rx="12.5" ry="12.5" style="stroke:#181818;stroke-width:0.5;" width="181" x="127" y="762.6807"/><text fill="#000000" font-family="sans-serif" font-size="12" lengthAdjust="spacing" textLength="161" x="137" y="784.2822">Login to Azure CLI (az login)</text><rect fill="#FFFF00" height="34.1328" rx="12.5" ry="12.5" style="stroke:#181818;stroke-width:0.5;" width="32" x="201.5" y="816.8135"/><text fill="#000000" font-family="sans-serif" font-size="12" lengthAdjust="spacing" textLength="12" x="211.5" y="838.415">...</text><rect fill="#F1F1F1" height="34.1328" rx="12.5" ry="12.5" style="stroke:#181818;stroke-width:0.5;" width="177" x="129" y="870.9463"/><text fill="#000000" font-family="sans-serif" font-size="12" lengthAdjust="spacing" textLength="157" x="139" y="892.5479">Create EF migration bundle</text><rect fill="#FFFF00" height="34.1328" rx="12.5" ry="12.5" style="stroke:#181818;stroke-width:0.5;" width="32" x="201.5" y="925.0791"/><text fill="#000000" font-family="sans-serif" font-size="12" lengthAdjust="spacing" textLength="12" x="211.5" y="946.6807">...</text><rect fill="#F1F1F1" height="34.1328" rx="12.5" ry="12.5" style="stroke:#181818;stroke-width:0.5;" width="345" x="45" y="979.2119"/><text fill="#000000" font-family="sans-serif" font-size="12" lengthAdjust="spacing" textLength="325" x="55" y="1000.8135">Apply the migration bundle to the database using az CLI</text><rect fill="#FFFF00" height="34.1328" rx="12.5" ry="12.5" style="stroke:#181818;stroke-width:0.5;" width="32" x="201.5" y="1033.3447"/><text fill="#000000" font-family="sans-serif" font-size="12" lengthAdjust="spacing" textLength="12" x="211.5" y="1054.9463">...</text><rect fill="#F1F1F1" height="34.1328" rx="12.5" ry="12.5" style="stroke:#181818;stroke-width:0.5;" width="213" x="111" y="1087.4775"/><text fill="#000000" font-family="sans-serif" font-size="12" lengthAdjust="spacing" textLength="193" x="121" y="1109.0791">Logout from Azure CLI (az logout)</text><rect fill="#FFFF00" height="34.1328" rx="12.5" ry="12.5" style="stroke:#181818;stroke-width:0.5;" width="32" x="201.5" y="1141.6104"/><text fill="#000000" font-family="sans-serif" font-size="12" lengthAdjust="spacing" textLength="12" x="211.5" y="1163.2119">...</text><rect fill="#008000" height="34.1328" rx="12.5" ry="12.5" style="stroke:#181818;stroke-width:0.5;" width="194" x="120.5" y="1195.7432"/><text fill="#000000" font-family="sans-serif" font-size="12" lengthAdjust="spacing" textLength="174" x="130.5" y="1217.3447">Sucessfully Updated Database</text><ellipse cx="217.5" cy="1260.876" fill="none" rx="11" ry="11" style="stroke:#222222;stroke-width:1.0;"/><ellipse cx="217.5" cy="1260.876" fill="#222222" rx="6" ry="6" style="stroke:#111111;stroke-width:1.0;"/><line style="stroke:#181818;stroke-width:1.0;" x1="217.5" x2="217.5" y1="191.707" y2="211.707"/><polygon fill="#181818" points="213.5,201.707,217.5,211.707,221.5,201.707,217.5,205.707" style="stroke:#181818;stroke-width:1.0;"/><line style="stroke:#181818;stroke-width:1.0;" x1="217.5" x2="217.5" y1="348.4502" y2="375.8838"/><polygon fill="#181818" points="213.5,365.8838,217.5,375.8838,221.5,365.8838,217.5,369.8838" style="stroke:#181818;stroke-width:1.0;"/><line style="stroke:#181818;stroke-width:1.0;" x1="217.5" x2="217.5" y1="289.8398" y2="314.3174"/><polygon fill="#181818" points="213.5,304.3174,217.5,314.3174,221.5,304.3174,217.5,308.3174" style="stroke:#181818;stroke-width:1.0;"/><line style="stroke:#181818;stroke-width:1.0;" x1="248" x2="260" y1="277.8398" y2="277.8398"/><polygon fill="#181818" points="256,345.8838,260,355.8838,264,345.8838,260,349.8838" style="stroke:#181818;stroke-width:1.0;"/><line style="stroke:#181818;stroke-width:1.0;" x1="260" x2="260" y1="277.8398" y2="417.8838"/><line style="stroke:#181818;stroke-width:1.0;" x1="260" x2="217.5" y1="417.8838" y2="417.8838"/><line style="stroke:#181818;stroke-width:1.0;" x1="217.5" x2="217.5" y1="417.8838" y2="437.8838"/><polygon fill="#181818" points="213.5,427.8838,217.5,437.8838,221.5,427.8838,217.5,431.8838" style="stroke:#181818;stroke-width:1.0;"/><line style="stroke:#181818;stroke-width:1.0;" x1="217.5" x2="217.5" y1="245.8398" y2="265.8398"/><polygon fill="#181818" points="213.5,255.8398,217.5,265.8398,221.5,255.8398,217.5,259.8398" style="stroke:#181818;stroke-width:1.0;"/><line style="stroke:#181818;stroke-width:1.0;" x1="217.5" x2="217.5" y1="472.0166" y2="492.0166"/><polygon fill="#181818" points="213.5,482.0166,217.5,492.0166,221.5,482.0166,217.5,486.0166" style="stroke:#181818;stroke-width:1.0;"/><line style="stroke:#181818;stroke-width:1.0;" x1="217.5" x2="217.5" y1="526.1494" y2="546.1494"/><polygon fill="#181818" points="213.5,536.1494,217.5,546.1494,221.5,536.1494,217.5,540.1494" style="stroke:#181818;stroke-width:1.0;"/><line style="stroke:#181818;stroke-width:1.0;" x1="217.5" x2="217.5" y1="580.2822" y2="600.2822"/><polygon fill="#181818" points="213.5,590.2822,217.5,600.2822,221.5,590.2822,217.5,594.2822" style="stroke:#181818;stroke-width:1.0;"/><line style="stroke:#181818;stroke-width:1.0;" x1="217.5" x2="217.5" y1="634.415" y2="654.415"/><polygon fill="#181818" points="213.5,644.415,217.5,654.415,221.5,644.415,217.5,648.415" style="stroke:#181818;stroke-width:1.0;"/><line style="stroke:#181818;stroke-width:1.0;" x1="217.5" x2="217.5" y1="688.5479" y2="708.5479"/><polygon fill="#181818" points="213.5,698.5479,217.5,708.5479,221.5,698.5479,217.5,702.5479" style="stroke:#181818;stroke-width:1.0;"/><line style="stroke:#181818;stroke-width:1.0;" x1="217.5" x2="217.5" y1="742.6807" y2="762.6807"/><polygon fill="#181818" points="213.5,752.6807,217.5,762.6807,221.5,752.6807,217.5,756.6807" style="stroke:#181818;stroke-width:1.0;"/><line style="stroke:#181818;stroke-width:1.0;" x1="217.5" x2="217.5" y1="796.8135" y2="816.8135"/><polygon fill="#181818" points="213.5,806.8135,217.5,816.8135,221.5,806.8135,217.5,810.8135" style="stroke:#181818;stroke-width:1.0;"/><line style="stroke:#181818;stroke-width:1.0;" x1="217.5" x2="217.5" y1="850.9463" y2="870.9463"/><polygon fill="#181818" points="213.5,860.9463,217.5,870.9463,221.5,860.9463,217.5,864.9463" style="stroke:#181818;stroke-width:1.0;"/><line style="stroke:#181818;stroke-width:1.0;" x1="217.5" x2="217.5" y1="905.0791" y2="925.0791"/><polygon fill="#181818" points="213.5,915.0791,217.5,925.0791,221.5,915.0791,217.5,919.0791" style="stroke:#181818;stroke-width:1.0;"/><line style="stroke:#181818;stroke-width:1.0;" x1="217.5" x2="217.5" y1="959.2119" y2="979.2119"/><polygon fill="#181818" points="213.5,969.2119,217.5,979.2119,221.5,969.2119,217.5,973.2119" style="stroke:#181818;stroke-width:1.0;"/><line style="stroke:#181818;stroke-width:1.0;" x1="217.5" x2="217.5" y1="1013.3447" y2="1033.3447"/><polygon fill="#181818" points="213.5,1023.3447,217.5,1033.3447,221.5,1023.3447,217.5,1027.3447" style="stroke:#181818;stroke-width:1.0;"/><line style="stroke:#181818;stroke-width:1.0;" x1="217.5" x2="217.5" y1="1067.4775" y2="1087.4775"/><polygon fill="#181818" points="213.5,1077.4775,217.5,1087.4775,221.5,1077.4775,217.5,1081.4775" style="stroke:#181818;stroke-width:1.0;"/><line style="stroke:#181818;stroke-width:1.0;" x1="217.5" x2="217.5" y1="1121.6104" y2="1141.6104"/><polygon fill="#181818" points="213.5,1131.6104,217.5,1141.6104,221.5,1131.6104,217.5,1135.6104" style="stroke:#181818;stroke-width:1.0;"/><line style="stroke:#181818;stroke-width:1.0;" x1="217.5" x2="217.5" y1="1175.7432" y2="1195.7432"/><polygon fill="#181818" points="213.5,1185.7432,217.5,1195.7432,221.5,1185.7432,217.5,1189.7432" style="stroke:#181818;stroke-width:1.0;"/><line style="stroke:#181818;stroke-width:1.0;" x1="217.5" x2="217.5" y1="1229.876" y2="1249.876"/><polygon fill="#181818" points="213.5,1239.876,217.5,1249.876,221.5,1239.876,217.5,1243.876" style="stroke:#181818;stroke-width:1.0;"/><!--MD5=[7d68a713c6b7767eb3929de029fec956]
@startuml
header UML Activity Diagram for Github Actions
title Azure Pipeline / Database Update (azure_pipeline.yml)
start
legend top left
Legend:
⨂ : termination of workflow
⚫ : start of workflow
◉ : stop and completion of workflow
Yellow box with ... : repeation of succes if-else block
endlegend

:Checkout Github Branch (The Branch that got pushed to);


if(Succes) then (No)
    #pink:Error;
    end
else (Yes)
endif


:Setup Dotnet 7 SDK;

#yellow:...;

:Install Dotnet Entity Framework (dotnet tool install);

#yellow:...;

:Install Azure CLI tool (az);

#yellow:...;

:Login to Azure CLI (az login);

#yellow:...;

:Create EF migration bundle;

#yellow:...;

:Apply the migration bundle to the database using az CLI;

#yellow:...;

:Logout from Azure CLI (az logout);

#yellow:...;

#green:Sucessfully Updated Database;

stop
@enduml

PlantUML version 1.2022.7(Mon Aug 22 19:01:30 CEST 2022)
(GPL source distribution)
Java Runtime: OpenJDK Runtime Environment
JVM: OpenJDK 64-Bit Server VM
Default Encoding: UTF-8
Language: en
Country: DK
--></g></svg>