<?xml version="1.0" encoding="UTF-8" standalone="no"?><svg xmlns="http://www.w3.org/2000/svg" xmlns:xlink="http://www.w3.org/1999/xlink" contentStyleType="text/css" height="958px" preserveAspectRatio="none" style="width:428px;height:958px;background:#FFFFFF;" version="1.1" viewBox="0 0 428 958" width="428px" zoomAndPan="magnify"><defs/><g><rect fill="none" height="11.7773" style="stroke:none;stroke-width:1.0;" width="195" x="220" y="10"/><text fill="#888888" font-family="sans-serif" font-size="10" lengthAdjust="spacing" textLength="195" x="220" y="19.668">UML Activity Diagram for Github Actions</text><rect fill="none" height="26.4883" id="_title" style="stroke:none;stroke-width:1.0;" width="341" x="42" y="27.7773"/><text fill="#000000" font-family="sans-serif" font-size="14" font-weight="bold" lengthAdjust="spacing" textLength="331" x="47" y="46.3125">Build And Test Workflow (build_and_test.yml)</text><rect fill="#DDDDDD" height="94.4414" id="_legend" rx="7.5" ry="7.5" style="stroke:#000000;stroke-width:1.0;" width="389" x="18" y="68.2656"/><text fill="#000000" font-family="sans-serif" font-size="14" lengthAdjust="spacing" textLength="54" x="24" y="87.8008">Legend:</text><text fill="#000000" font-family="sans-serif" font-size="14" lengthAdjust="spacing" textLength="190" x="24" y="104.2891">⨂ : termination of workflow</text><text fill="#000000" font-family="sans-serif" font-size="14" lengthAdjust="spacing" textLength="147" x="24" y="120.7773">⚫ : start of workflow</text><text fill="#000000" font-family="sans-serif" font-size="14" lengthAdjust="spacing" textLength="252" x="24" y="137.2656">◉ : stop and completion of workflow</text><text fill="#000000" font-family="sans-serif" font-size="14" lengthAdjust="spacing" textLength="377" x="24" y="153.7539">Yellow box with ... : repeation of success error decision</text><ellipse cx="214" cy="181.707" fill="#222222" rx="10" ry="10" style="stroke:#222222;stroke-width:1.0;"/><rect fill="#F1F1F1" height="34.1328" rx="12.5" ry="12.5" style="stroke:#181818;stroke-width:0.5;" width="345" x="41.5" y="211.707"/><text fill="#000000" font-family="sans-serif" font-size="12" lengthAdjust="spacing" textLength="325" x="51.5" y="233.3086">Checkout Github Branch (The Branch that got pushed to)</text><rect fill="#FFC0CB" height="34.1328" rx="12.5" ry="12.5" style="stroke:#181818;stroke-width:0.5;" width="49" x="189.5" y="314.3174"/><text fill="#000000" font-family="sans-serif" font-size="12" lengthAdjust="spacing" textLength="29" x="199.5" y="335.9189">Error</text><ellipse cx="214" cy="385.8838" fill="none" rx="10" ry="10" style="stroke:#222222;stroke-width:1.5;"/><line style="stroke:#222222;stroke-width:2.5;" x1="207.8128" x2="220.1872" y1="379.6966" y2="392.071"/><line style="stroke:#222222;stroke-width:2.5;" x1="220.1872" x2="207.8128" y1="379.6966" y2="392.071"/><polygon fill="#F1F1F1" points="195.5,265.8398,232.5,265.8398,244.5,277.8398,232.5,289.8398,195.5,289.8398,183.5,277.8398,195.5,265.8398" style="stroke:#181818;stroke-width:0.5;"/><text fill="#000000" font-family="sans-serif" font-size="11" lengthAdjust="spacing" textLength="15" x="218" y="300.4746">No</text><text fill="#000000" font-family="sans-serif" font-size="11" lengthAdjust="spacing" textLength="37" x="195.5" y="281.9971">Succes</text><text fill="#000000" font-family="sans-serif" font-size="11" lengthAdjust="spacing" textLength="19" x="244.5" y="275.5195">Yes</text><rect fill="#F1F1F1" height="34.1328" rx="12.5" ry="12.5" style="stroke:#181818;stroke-width:0.5;" width="287" x="70.5" y="437.8838"/><text fill="#000000" font-family="sans-serif" font-size="12" lengthAdjust="spacing" textLength="267" x="80.5" y="459.4854">Run docker image of pandoc (with arguments)</text><rect fill="#FFFF00" height="34.1328" rx="12.5" ry="12.5" style="stroke:#181818;stroke-width:0.5;" width="32" x="198" y="492.0166"/><text fill="#000000" font-family="sans-serif" font-size="12" lengthAdjust="spacing" textLength="12" x="208" y="513.6182">...</text><rect fill="#F1F1F1" height="34.1328" rx="12.5" ry="12.5" style="stroke:#181818;stroke-width:0.5;" width="160" x="134" y="546.1494"/><text fill="#000000" font-family="sans-serif" font-size="12" lengthAdjust="spacing" textLength="140" x="144" y="567.751">Move PDF to docs folder</text><rect fill="#FFFF00" height="34.1328" rx="12.5" ry="12.5" style="stroke:#181818;stroke-width:0.5;" width="32" x="198" y="600.2822"/><text fill="#000000" font-family="sans-serif" font-size="12" lengthAdjust="spacing" textLength="12" x="208" y="621.8838">...</text><rect fill="#F1F1F1" height="34.1328" rx="12.5" ry="12.5" style="stroke:#181818;stroke-width:0.5;" width="148" x="140" y="654.415"/><text fill="#000000" font-family="sans-serif" font-size="12" lengthAdjust="spacing" textLength="128" x="150" y="676.0166">Set Github Credentials</text><rect fill="#F1F1F1" height="34.1328" rx="12.5" ry="12.5" style="stroke:#181818;stroke-width:0.5;" width="132" x="148" y="708.5479"/><text fill="#000000" font-family="sans-serif" font-size="12" lengthAdjust="spacing" textLength="112" x="158" y="730.1494">Add files to commit</text><rect fill="#F1F1F1" height="34.1328" rx="12.5" ry="12.5" style="stroke:#181818;stroke-width:0.5;" width="115" x="156.5" y="762.6807"/><text fill="#000000" font-family="sans-serif" font-size="12" lengthAdjust="spacing" textLength="95" x="166.5" y="784.2822">Commit changes</text><rect fill="#F1F1F1" height="34.1328" rx="12.5" ry="12.5" style="stroke:#181818;stroke-width:0.5;" width="155" x="136.5" y="816.8135"/><text fill="#000000" font-family="sans-serif" font-size="12" lengthAdjust="spacing" textLength="135" x="146.5" y="838.415">Push changes to Github</text><rect fill="#FFFF00" height="34.1328" rx="12.5" ry="12.5" style="stroke:#181818;stroke-width:0.5;" width="32" x="198" y="870.9463"/><text fill="#000000" font-family="sans-serif" font-size="12" lengthAdjust="spacing" textLength="12" x="208" y="892.5479">...</text><ellipse cx="214" cy="936.0791" fill="none" rx="11" ry="11" style="stroke:#222222;stroke-width:1.0;"/><ellipse cx="214" cy="936.0791" fill="#222222" rx="6" ry="6" style="stroke:#111111;stroke-width:1.0;"/><line style="stroke:#181818;stroke-width:1.0;" x1="214" x2="214" y1="191.707" y2="211.707"/><polygon fill="#181818" points="210,201.707,214,211.707,218,201.707,214,205.707" style="stroke:#181818;stroke-width:1.0;"/><line style="stroke:#181818;stroke-width:1.0;" x1="214" x2="214" y1="348.4502" y2="375.8838"/><polygon fill="#181818" points="210,365.8838,214,375.8838,218,365.8838,214,369.8838" style="stroke:#181818;stroke-width:1.0;"/><line style="stroke:#181818;stroke-width:1.0;" x1="214" x2="214" y1="289.8398" y2="314.3174"/><polygon fill="#181818" points="210,304.3174,214,314.3174,218,304.3174,214,308.3174" style="stroke:#181818;stroke-width:1.0;"/><line style="stroke:#181818;stroke-width:1.0;" x1="244.5" x2="256.5" y1="277.8398" y2="277.8398"/><polygon fill="#181818" points="252.5,345.8838,256.5,355.8838,260.5,345.8838,256.5,349.8838" style="stroke:#181818;stroke-width:1.0;"/><line style="stroke:#181818;stroke-width:1.0;" x1="256.5" x2="256.5" y1="277.8398" y2="417.8838"/><line style="stroke:#181818;stroke-width:1.0;" x1="256.5" x2="214" y1="417.8838" y2="417.8838"/><line style="stroke:#181818;stroke-width:1.0;" x1="214" x2="214" y1="417.8838" y2="437.8838"/><polygon fill="#181818" points="210,427.8838,214,437.8838,218,427.8838,214,431.8838" style="stroke:#181818;stroke-width:1.0;"/><line style="stroke:#181818;stroke-width:1.0;" x1="214" x2="214" y1="245.8398" y2="265.8398"/><polygon fill="#181818" points="210,255.8398,214,265.8398,218,255.8398,214,259.8398" style="stroke:#181818;stroke-width:1.0;"/><line style="stroke:#181818;stroke-width:1.0;" x1="214" x2="214" y1="472.0166" y2="492.0166"/><polygon fill="#181818" points="210,482.0166,214,492.0166,218,482.0166,214,486.0166" style="stroke:#181818;stroke-width:1.0;"/><line style="stroke:#181818;stroke-width:1.0;" x1="214" x2="214" y1="526.1494" y2="546.1494"/><polygon fill="#181818" points="210,536.1494,214,546.1494,218,536.1494,214,540.1494" style="stroke:#181818;stroke-width:1.0;"/><line style="stroke:#181818;stroke-width:1.0;" x1="214" x2="214" y1="580.2822" y2="600.2822"/><polygon fill="#181818" points="210,590.2822,214,600.2822,218,590.2822,214,594.2822" style="stroke:#181818;stroke-width:1.0;"/><line style="stroke:#181818;stroke-width:1.0;" x1="214" x2="214" y1="634.415" y2="654.415"/><polygon fill="#181818" points="210,644.415,214,654.415,218,644.415,214,648.415" style="stroke:#181818;stroke-width:1.0;"/><line style="stroke:#181818;stroke-width:1.0;" x1="214" x2="214" y1="688.5479" y2="708.5479"/><polygon fill="#181818" points="210,698.5479,214,708.5479,218,698.5479,214,702.5479" style="stroke:#181818;stroke-width:1.0;"/><line style="stroke:#181818;stroke-width:1.0;" x1="214" x2="214" y1="742.6807" y2="762.6807"/><polygon fill="#181818" points="210,752.6807,214,762.6807,218,752.6807,214,756.6807" style="stroke:#181818;stroke-width:1.0;"/><line style="stroke:#181818;stroke-width:1.0;" x1="214" x2="214" y1="796.8135" y2="816.8135"/><polygon fill="#181818" points="210,806.8135,214,816.8135,218,806.8135,214,810.8135" style="stroke:#181818;stroke-width:1.0;"/><line style="stroke:#181818;stroke-width:1.0;" x1="214" x2="214" y1="850.9463" y2="870.9463"/><polygon fill="#181818" points="210,860.9463,214,870.9463,218,860.9463,214,864.9463" style="stroke:#181818;stroke-width:1.0;"/><line style="stroke:#181818;stroke-width:1.0;" x1="214" x2="214" y1="905.0791" y2="925.0791"/><polygon fill="#181818" points="210,915.0791,214,925.0791,218,915.0791,214,919.0791" style="stroke:#181818;stroke-width:1.0;"/><!--MD5=[5c0ca8ca54d34bfbb1c06a465b8a18ff]
@startuml
header UML Activity Diagram for Github Actions
title Build And Test Workflow (build_and_test.yml)
start
legend top left
Legend:
⨂ : termination of workflow
⚫ : start of workflow
◉ : stop and completion of workflow
Yellow box with ... : repeation of success error decision
endlegend

:Checkout Github Branch (The Branch that got pushed to);


if(Succes) then (No)
    #pink:Error;
    end
else (Yes)
endif

:Run docker image of pandoc (with arguments);

#yellow:...;

:Move PDF to docs folder;

#yellow:...;

:Set Github Credentials;
:Add files to commit;
:Commit changes;
:Push changes to Github;

#yellow:...;

stop
@enduml

PlantUML version 1.2022.7(Mon Aug 22 19:01:30 CEST 2022)
(GPL source distribution)
Java Runtime: OpenJDK Runtime Environment
JVM: OpenJDK 64-Bit Server VM
Default Encoding: UTF-8
Language: en
Country: DK
--></g></svg>