<?xml version="1.0" encoding="UTF-8" standalone="no"?><svg xmlns="http://www.w3.org/2000/svg" xmlns:xlink="http://www.w3.org/1999/xlink" contentStyleType="text/css" height="1553px" preserveAspectRatio="none" style="width:428px;height:1553px;background:#FFFFFF;" version="1.1" viewBox="0 0 428 1553" width="428px" zoomAndPan="magnify"><defs/><g><rect fill="none" height="11.7773" style="stroke:none;stroke-width:1.0;" width="195" x="220" y="10"/><text fill="#888888" font-family="sans-serif" font-size="10" lengthAdjust="spacing" textLength="195" x="220" y="19.668">UML Activity Diagram for Github Actions</text><rect fill="none" height="26.4883" id="_title" style="stroke:none;stroke-width:1.0;" width="283" x="71" y="27.7773"/><text fill="#000000" font-family="sans-serif" font-size="14" font-weight="bold" lengthAdjust="spacing" textLength="273" x="76" y="46.3125">Playwright Workflow (playwright.yml)</text><rect fill="#DDDDDD" height="94.4414" id="_legend" rx="7.5" ry="7.5" style="stroke:#000000;stroke-width:1.0;" width="389" x="18" y="68.2656"/><text fill="#000000" font-family="sans-serif" font-size="14" lengthAdjust="spacing" textLength="54" x="24" y="87.8008">Legend:</text><text fill="#000000" font-family="sans-serif" font-size="14" lengthAdjust="spacing" textLength="190" x="24" y="104.2891">⨂ : termination of workflow</text><text fill="#000000" font-family="sans-serif" font-size="14" lengthAdjust="spacing" textLength="147" x="24" y="120.7773">⚫ : start of workflow</text><text fill="#000000" font-family="sans-serif" font-size="14" lengthAdjust="spacing" textLength="252" x="24" y="137.2656">◉ : stop and completion of workflow</text><text fill="#000000" font-family="sans-serif" font-size="14" lengthAdjust="spacing" textLength="377" x="24" y="153.7539">Yellow box with ... : repeation of success error decision</text><ellipse cx="214" cy="181.707" fill="#222222" rx="10" ry="10" style="stroke:#222222;stroke-width:1.0;"/><rect fill="#F1F1F1" height="34.1328" rx="12.5" ry="12.5" style="stroke:#181818;stroke-width:0.5;" width="345" x="41.5" y="211.707"/><text fill="#000000" font-family="sans-serif" font-size="12" lengthAdjust="spacing" textLength="325" x="51.5" y="233.3086">Checkout Github Branch (The Branch that got pushed to)</text><rect fill="#FFC0CB" height="34.1328" rx="12.5" ry="12.5" style="stroke:#181818;stroke-width:0.5;" width="49" x="189.5" y="314.3174"/><text fill="#000000" font-family="sans-serif" font-size="12" lengthAdjust="spacing" textLength="29" x="199.5" y="335.9189">Error</text><ellipse cx="214" cy="385.8838" fill="none" rx="10" ry="10" style="stroke:#222222;stroke-width:1.5;"/><line style="stroke:#222222;stroke-width:2.5;" x1="207.8128" x2="220.1872" y1="379.6966" y2="392.071"/><line style="stroke:#222222;stroke-width:2.5;" x1="220.1872" x2="207.8128" y1="379.6966" y2="392.071"/><polygon fill="#F1F1F1" points="195.5,265.8398,232.5,265.8398,244.5,277.8398,232.5,289.8398,195.5,289.8398,183.5,277.8398,195.5,265.8398" style="stroke:#181818;stroke-width:0.5;"/><text fill="#000000" font-family="sans-serif" font-size="11" lengthAdjust="spacing" textLength="15" x="218" y="300.4746">No</text><text fill="#000000" font-family="sans-serif" font-size="11" lengthAdjust="spacing" textLength="37" x="195.5" y="281.9971">Succes</text><text fill="#000000" font-family="sans-serif" font-size="11" lengthAdjust="spacing" textLength="19" x="244.5" y="275.5195">Yes</text><rect fill="#F1F1F1" height="34.1328" rx="12.5" ry="12.5" style="stroke:#181818;stroke-width:0.5;" width="133" x="147.5" y="437.8838"/><text fill="#000000" font-family="sans-serif" font-size="12" lengthAdjust="spacing" textLength="113" x="157.5" y="459.4854">Setup Dotnet 7 SDK</text><rect fill="#FFFF00" height="34.1328" rx="12.5" ry="12.5" style="stroke:#181818;stroke-width:0.5;" width="32" x="198" y="492.0166"/><text fill="#000000" font-family="sans-serif" font-size="12" lengthAdjust="spacing" textLength="12" x="208" y="513.6182">...</text><rect fill="#F1F1F1" height="34.1328" rx="12.5" ry="12.5" style="stroke:#181818;stroke-width:0.5;" width="230" x="99" y="546.1494"/><text fill="#000000" font-family="sans-serif" font-size="12" lengthAdjust="spacing" textLength="210" x="109" y="567.751">Install powershell (dotnet tool install)</text><rect fill="#FFFF00" height="34.1328" rx="12.5" ry="12.5" style="stroke:#181818;stroke-width:0.5;" width="32" x="198" y="600.2822"/><text fill="#000000" font-family="sans-serif" font-size="12" lengthAdjust="spacing" textLength="12" x="208" y="621.8838">...</text><rect fill="#F1F1F1" height="34.1328" rx="12.5" ry="12.5" style="stroke:#181818;stroke-width:0.5;" width="232" x="98" y="654.415"/><text fill="#000000" font-family="sans-serif" font-size="12" lengthAdjust="spacing" textLength="212" x="108" y="676.0166">Install Docker (Ubuntu docker install)</text><rect fill="#FFFF00" height="34.1328" rx="12.5" ry="12.5" style="stroke:#181818;stroke-width:0.5;" width="32" x="198" y="708.5479"/><text fill="#000000" font-family="sans-serif" font-size="12" lengthAdjust="spacing" textLength="12" x="208" y="730.1494">...</text><rect fill="#F1F1F1" height="34.1328" rx="12.5" ry="12.5" style="stroke:#181818;stroke-width:0.5;" width="250" x="89" y="762.6807"/><text fill="#000000" font-family="sans-serif" font-size="12" lengthAdjust="spacing" textLength="230" x="99" y="784.2822">Install Playwright (dotnet add packages)</text><rect fill="#FFFF00" height="34.1328" rx="12.5" ry="12.5" style="stroke:#181818;stroke-width:0.5;" width="32" x="198" y="816.8135"/><text fill="#000000" font-family="sans-serif" font-size="12" lengthAdjust="spacing" textLength="12" x="208" y="838.415">...</text><rect fill="#F1F1F1" height="34.1328" rx="12.5" ry="12.5" style="stroke:#181818;stroke-width:0.5;" width="174" x="127" y="870.9463"/><text fill="#000000" font-family="sans-serif" font-size="12" lengthAdjust="spacing" textLength="154" x="137" y="892.5479">Build Project (dotnet build)</text><rect fill="#FFFF00" height="34.1328" rx="12.5" ry="12.5" style="stroke:#181818;stroke-width:0.5;" width="32" x="198" y="925.0791"/><text fill="#000000" font-family="sans-serif" font-size="12" lengthAdjust="spacing" textLength="12" x="208" y="946.6807">...</text><rect fill="#F1F1F1" height="34.1328" rx="12.5" ry="12.5" style="stroke:#181818;stroke-width:0.5;" width="279" x="74.5" y="979.2119"/><text fill="#000000" font-family="sans-serif" font-size="12" lengthAdjust="spacing" textLength="259" x="84.5" y="1000.8135">Install Playwright Browsers (using powershell)</text><rect fill="#FFFF00" height="34.1328" rx="12.5" ry="12.5" style="stroke:#181818;stroke-width:0.5;" width="32" x="198" y="1033.3447"/><text fill="#000000" font-family="sans-serif" font-size="12" lengthAdjust="spacing" textLength="12" x="208" y="1054.9463">...</text><rect fill="#F1F1F1" height="34.1328" rx="12.5" ry="12.5" style="stroke:#181818;stroke-width:0.5;" width="301" x="63.5" y="1087.4775"/><text fill="#000000" font-family="sans-serif" font-size="12" lengthAdjust="spacing" textLength="281" x="73.5" y="1109.0791">Generate Browser Certificates (using bash script)</text><rect fill="#FFFF00" height="34.1328" rx="12.5" ry="12.5" style="stroke:#181818;stroke-width:0.5;" width="32" x="198" y="1141.6104"/><text fill="#000000" font-family="sans-serif" font-size="12" lengthAdjust="spacing" textLength="12" x="208" y="1163.2119">...</text><rect fill="#F1F1F1" height="34.1328" rx="12.5" ry="12.5" style="stroke:#181818;stroke-width:0.5;" width="321" x="53.5" y="1195.7432"/><text fill="#000000" font-family="sans-serif" font-size="12" lengthAdjust="spacing" textLength="301" x="63.5" y="1217.3447">Start Program and Database using docker-compose</text><rect fill="#FFFF00" height="34.1328" rx="12.5" ry="12.5" style="stroke:#181818;stroke-width:0.5;" width="32" x="198" y="1249.876"/><text fill="#000000" font-family="sans-serif" font-size="12" lengthAdjust="spacing" textLength="12" x="208" y="1271.4775">...</text><rect fill="#F1F1F1" height="34.1328" rx="12.5" ry="12.5" style="stroke:#181818;stroke-width:0.5;" width="256" x="86" y="1304.0088"/><text fill="#000000" font-family="sans-serif" font-size="12" lengthAdjust="spacing" textLength="236" x="96" y="1325.6104">Wait 15 seconds for the program to start</text><rect fill="#F1F1F1" height="34.1328" rx="12.5" ry="12.5" style="stroke:#181818;stroke-width:0.5;" width="213" x="107.5" y="1358.1416"/><text fill="#000000" font-family="sans-serif" font-size="12" lengthAdjust="spacing" textLength="193" x="117.5" y="1379.7432">Run Playwright Tests (dotnet test)</text><rect fill="#FFFF00" height="34.1328" rx="12.5" ry="12.5" style="stroke:#181818;stroke-width:0.5;" width="32" x="198" y="1412.2744"/><text fill="#000000" font-family="sans-serif" font-size="12" lengthAdjust="spacing" textLength="12" x="208" y="1433.876">...</text><rect fill="#008000" height="34.1328" rx="12.5" ry="12.5" style="stroke:#181818;stroke-width:0.5;" width="96" x="166" y="1466.4072"/><text fill="#000000" font-family="sans-serif" font-size="12" lengthAdjust="spacing" textLength="76" x="176" y="1488.0088">Tests Passed</text><ellipse cx="214" cy="1531.54" fill="none" rx="11" ry="11" style="stroke:#222222;stroke-width:1.0;"/><ellipse cx="214" cy="1531.54" fill="#222222" rx="6" ry="6" style="stroke:#111111;stroke-width:1.0;"/><line style="stroke:#181818;stroke-width:1.0;" x1="214" x2="214" y1="191.707" y2="211.707"/><polygon fill="#181818" points="210,201.707,214,211.707,218,201.707,214,205.707" style="stroke:#181818;stroke-width:1.0;"/><line style="stroke:#181818;stroke-width:1.0;" x1="214" x2="214" y1="348.4502" y2="375.8838"/><polygon fill="#181818" points="210,365.8838,214,375.8838,218,365.8838,214,369.8838" style="stroke:#181818;stroke-width:1.0;"/><line style="stroke:#181818;stroke-width:1.0;" x1="214" x2="214" y1="289.8398" y2="314.3174"/><polygon fill="#181818" points="210,304.3174,214,314.3174,218,304.3174,214,308.3174" style="stroke:#181818;stroke-width:1.0;"/><line style="stroke:#181818;stroke-width:1.0;" x1="244.5" x2="256.5" y1="277.8398" y2="277.8398"/><polygon fill="#181818" points="252.5,345.8838,256.5,355.8838,260.5,345.8838,256.5,349.8838" style="stroke:#181818;stroke-width:1.0;"/><line style="stroke:#181818;stroke-width:1.0;" x1="256.5" x2="256.5" y1="277.8398" y2="417.8838"/><line style="stroke:#181818;stroke-width:1.0;" x1="256.5" x2="214" y1="417.8838" y2="417.8838"/><line style="stroke:#181818;stroke-width:1.0;" x1="214" x2="214" y1="417.8838" y2="437.8838"/><polygon fill="#181818" points="210,427.8838,214,437.8838,218,427.8838,214,431.8838" style="stroke:#181818;stroke-width:1.0;"/><line style="stroke:#181818;stroke-width:1.0;" x1="214" x2="214" y1="245.8398" y2="265.8398"/><polygon fill="#181818" points="210,255.8398,214,265.8398,218,255.8398,214,259.8398" style="stroke:#181818;stroke-width:1.0;"/><line style="stroke:#181818;stroke-width:1.0;" x1="214" x2="214" y1="472.0166" y2="492.0166"/><polygon fill="#181818" points="210,482.0166,214,492.0166,218,482.0166,214,486.0166" style="stroke:#181818;stroke-width:1.0;"/><line style="stroke:#181818;stroke-width:1.0;" x1="214" x2="214" y1="526.1494" y2="546.1494"/><polygon fill="#181818" points="210,536.1494,214,546.1494,218,536.1494,214,540.1494" style="stroke:#181818;stroke-width:1.0;"/><line style="stroke:#181818;stroke-width:1.0;" x1="214" x2="214" y1="580.2822" y2="600.2822"/><polygon fill="#181818" points="210,590.2822,214,600.2822,218,590.2822,214,594.2822" style="stroke:#181818;stroke-width:1.0;"/><line style="stroke:#181818;stroke-width:1.0;" x1="214" x2="214" y1="634.415" y2="654.415"/><polygon fill="#181818" points="210,644.415,214,654.415,218,644.415,214,648.415" style="stroke:#181818;stroke-width:1.0;"/><line style="stroke:#181818;stroke-width:1.0;" x1="214" x2="214" y1="688.5479" y2="708.5479"/><polygon fill="#181818" points="210,698.5479,214,708.5479,218,698.5479,214,702.5479" style="stroke:#181818;stroke-width:1.0;"/><line style="stroke:#181818;stroke-width:1.0;" x1="214" x2="214" y1="742.6807" y2="762.6807"/><polygon fill="#181818" points="210,752.6807,214,762.6807,218,752.6807,214,756.6807" style="stroke:#181818;stroke-width:1.0;"/><line style="stroke:#181818;stroke-width:1.0;" x1="214" x2="214" y1="796.8135" y2="816.8135"/><polygon fill="#181818" points="210,806.8135,214,816.8135,218,806.8135,214,810.8135" style="stroke:#181818;stroke-width:1.0;"/><line style="stroke:#181818;stroke-width:1.0;" x1="214" x2="214" y1="850.9463" y2="870.9463"/><polygon fill="#181818" points="210,860.9463,214,870.9463,218,860.9463,214,864.9463" style="stroke:#181818;stroke-width:1.0;"/><line style="stroke:#181818;stroke-width:1.0;" x1="214" x2="214" y1="905.0791" y2="925.0791"/><polygon fill="#181818" points="210,915.0791,214,925.0791,218,915.0791,214,919.0791" style="stroke:#181818;stroke-width:1.0;"/><line style="stroke:#181818;stroke-width:1.0;" x1="214" x2="214" y1="959.2119" y2="979.2119"/><polygon fill="#181818" points="210,969.2119,214,979.2119,218,969.2119,214,973.2119" style="stroke:#181818;stroke-width:1.0;"/><line style="stroke:#181818;stroke-width:1.0;" x1="214" x2="214" y1="1013.3447" y2="1033.3447"/><polygon fill="#181818" points="210,1023.3447,214,1033.3447,218,1023.3447,214,1027.3447" style="stroke:#181818;stroke-width:1.0;"/><line style="stroke:#181818;stroke-width:1.0;" x1="214" x2="214" y1="1067.4775" y2="1087.4775"/><polygon fill="#181818" points="210,1077.4775,214,1087.4775,218,1077.4775,214,1081.4775" style="stroke:#181818;stroke-width:1.0;"/><line style="stroke:#181818;stroke-width:1.0;" x1="214" x2="214" y1="1121.6104" y2="1141.6104"/><polygon fill="#181818" points="210,1131.6104,214,1141.6104,218,1131.6104,214,1135.6104" style="stroke:#181818;stroke-width:1.0;"/><line style="stroke:#181818;stroke-width:1.0;" x1="214" x2="214" y1="1175.7432" y2="1195.7432"/><polygon fill="#181818" points="210,1185.7432,214,1195.7432,218,1185.7432,214,1189.7432" style="stroke:#181818;stroke-width:1.0;"/><line style="stroke:#181818;stroke-width:1.0;" x1="214" x2="214" y1="1229.876" y2="1249.876"/><polygon fill="#181818" points="210,1239.876,214,1249.876,218,1239.876,214,1243.876" style="stroke:#181818;stroke-width:1.0;"/><line style="stroke:#181818;stroke-width:1.0;" x1="214" x2="214" y1="1284.0088" y2="1304.0088"/><polygon fill="#181818" points="210,1294.0088,214,1304.0088,218,1294.0088,214,1298.0088" style="stroke:#181818;stroke-width:1.0;"/><line style="stroke:#181818;stroke-width:1.0;" x1="214" x2="214" y1="1338.1416" y2="1358.1416"/><polygon fill="#181818" points="210,1348.1416,214,1358.1416,218,1348.1416,214,1352.1416" style="stroke:#181818;stroke-width:1.0;"/><line style="stroke:#181818;stroke-width:1.0;" x1="214" x2="214" y1="1392.2744" y2="1412.2744"/><polygon fill="#181818" points="210,1402.2744,214,1412.2744,218,1402.2744,214,1406.2744" style="stroke:#181818;stroke-width:1.0;"/><line style="stroke:#181818;stroke-width:1.0;" x1="214" x2="214" y1="1446.4072" y2="1466.4072"/><polygon fill="#181818" points="210,1456.4072,214,1466.4072,218,1456.4072,214,1460.4072" style="stroke:#181818;stroke-width:1.0;"/><line style="stroke:#181818;stroke-width:1.0;" x1="214" x2="214" y1="1500.54" y2="1520.54"/><polygon fill="#181818" points="210,1510.54,214,1520.54,218,1510.54,214,1514.54" style="stroke:#181818;stroke-width:1.0;"/><!--MD5=[b0aacd94ed473d187f258edf5711ba83]
@startuml
header UML Activity Diagram for Github Actions
title Playwright Workflow (playwright.yml)
start
legend top left
Legend:
⨂ : termination of workflow
⚫ : start of workflow
◉ : stop and completion of workflow
Yellow box with ... : repeation of success error decision
endlegend

:Checkout Github Branch (The Branch that got pushed to);


if(Succes) then (No)
    #pink:Error;
    end
else (Yes)
endif


:Setup Dotnet 7 SDK;

#yellow:...;

:Install powershell (dotnet tool install);

#yellow:...;

:Install Docker (Ubuntu docker install);

#yellow:...;

:Install Playwright (dotnet add packages);

#yellow:...;

:Build Project (dotnet build);

#yellow:...;

:Install Playwright Browsers (using powershell);

#yellow:...;

:Generate Browser Certificates (using bash script);

#yellow:...;

:Start Program and Database using docker-compose;

#yellow:...;

:Wait 15 seconds for the program to start;

:Run Playwright Tests (dotnet test);

#yellow:...;

#green:Tests Passed;

stop
@enduml

PlantUML version 1.2022.7(Mon Aug 22 19:01:30 CEST 2022)
(GPL source distribution)
Java Runtime: OpenJDK Runtime Environment
JVM: OpenJDK 64-Bit Server VM
Default Encoding: UTF-8
Language: en
Country: DK
--></g></svg>