<?xml version="1.0" encoding="UTF-8" standalone="no"?><svg xmlns="http://www.w3.org/2000/svg" xmlns:xlink="http://www.w3.org/1999/xlink" contentStyleType="text/css" height="728px" preserveAspectRatio="none" style="width:703px;height:728px;background:#FFFFFF;" version="1.1" viewBox="0 0 703 728" width="703px" zoomAndPan="magnify"><defs/><g><rect fill="none" height="27.6094" id="_title" style="stroke:none;stroke-width:1.0;" width="203" x="246.25" y="23.5781"/><text fill="#000000" font-family="sans-serif" font-size="14" font-weight="bold" lengthAdjust="spacing" textLength="193" x="251.25" y="43.1113">Azure deployment workflow</text><rect fill="none" height="325.1875" style="stroke:#000000;stroke-width:1.5;" width="676.5" x="10" y="349.7656"/><rect fill="none" height="185.9453" style="stroke:#000000;stroke-width:1.5;" width="656.5" x="20" y="482.0078"/><line style="stroke:#181818;stroke-width:0.5;stroke-dasharray:5.0,5.0;" x1="81" x2="81" y1="272.0625" y2="691.9531"/><line style="stroke:#181818;stroke-width:0.5;stroke-dasharray:5.0,5.0;" x1="233" x2="233" y1="272.0625" y2="691.9531"/><line style="stroke:#181818;stroke-width:0.5;stroke-dasharray:5.0,5.0;" x1="327.5" x2="327.5" y1="272.0625" y2="691.9531"/><line style="stroke:#181818;stroke-width:0.5;stroke-dasharray:5.0,5.0;" x1="493.5" x2="493.5" y1="272.0625" y2="691.9531"/><line style="stroke:#181818;stroke-width:0.5;stroke-dasharray:5.0,5.0;" x1="633.5" x2="633.5" y1="272.0625" y2="691.9531"/><rect fill="#E2E2F0" height="31.6094" rx="2.5" ry="2.5" style="stroke:#181818;stroke-width:0.5;" width="102" x="30" y="239.4531"/><text fill="#000000" font-family="sans-serif" font-size="14" lengthAdjust="spacing" textLength="88" x="37" y="260.9863">Dev computer</text><rect fill="#E2E2F0" height="31.6094" rx="2.5" ry="2.5" style="stroke:#181818;stroke-width:0.5;" width="102" x="30" y="690.9531"/><text fill="#000000" font-family="sans-serif" font-size="14" lengthAdjust="spacing" textLength="88" x="37" y="712.4863">Dev computer</text><rect fill="#E2E2F0" height="31.6094" rx="2.5" ry="2.5" style="stroke:#181818;stroke-width:0.5;" width="32" x="217" y="239.4531"/><text fill="#000000" font-family="sans-serif" font-size="14" lengthAdjust="spacing" textLength="18" x="224" y="260.9863">Git</text><rect fill="#E2E2F0" height="31.6094" rx="2.5" ry="2.5" style="stroke:#181818;stroke-width:0.5;" width="32" x="217" y="690.9531"/><text fill="#000000" font-family="sans-serif" font-size="14" lengthAdjust="spacing" textLength="18" x="224" y="712.4863">Git</text><rect fill="#E2E2F0" height="31.6094" rx="2.5" ry="2.5" style="stroke:#181818;stroke-width:0.5;" width="119" x="268.5" y="239.4531"/><text fill="#000000" font-family="sans-serif" font-size="14" lengthAdjust="spacing" textLength="105" x="275.5" y="260.9863">Build &amp; unit tests</text><rect fill="#E2E2F0" height="31.6094" rx="2.5" ry="2.5" style="stroke:#181818;stroke-width:0.5;" width="119" x="268.5" y="690.9531"/><text fill="#000000" font-family="sans-serif" font-size="14" lengthAdjust="spacing" textLength="105" x="275.5" y="712.4863">Build &amp; unit tests</text><rect fill="#E2E2F0" height="31.6094" rx="2.5" ry="2.5" style="stroke:#181818;stroke-width:0.5;" width="193" x="397.5" y="239.4531"/><text fill="#000000" font-family="sans-serif" font-size="14" lengthAdjust="spacing" textLength="179" x="404.5" y="260.9863">Automated acceptance tests</text><rect fill="#E2E2F0" height="31.6094" rx="2.5" ry="2.5" style="stroke:#181818;stroke-width:0.5;" width="193" x="397.5" y="690.9531"/><text fill="#000000" font-family="sans-serif" font-size="14" lengthAdjust="spacing" textLength="179" x="404.5" y="712.4863">Automated acceptance tests</text><rect fill="#E2E2F0" height="31.6094" rx="2.5" ry="2.5" style="stroke:#181818;stroke-width:0.5;" width="66" x="600.5" y="239.4531"/><text fill="#000000" font-family="sans-serif" font-size="14" lengthAdjust="spacing" textLength="52" x="607.5" y="260.9863">Release</text><rect fill="#E2E2F0" height="31.6094" rx="2.5" ry="2.5" style="stroke:#181818;stroke-width:0.5;" width="66" x="600.5" y="690.9531"/><text fill="#000000" font-family="sans-serif" font-size="14" lengthAdjust="spacing" textLength="52" x="607.5" y="712.4863">Release</text><polygon fill="#181818" points="221,300.4141,231,304.4141,221,308.4141,225,304.4141" style="stroke:#181818;stroke-width:1.0;"/><line style="stroke:#181818;stroke-width:1.0;" x1="81" x2="227" y1="304.4141" y2="304.4141"/><text fill="#000000" font-family="sans-serif" font-size="13" lengthAdjust="spacing" textLength="90" x="88" y="299.5576">Commit &amp; push</text><polygon fill="#181818" points="316,330.7656,326,334.7656,316,338.7656,320,334.7656" style="stroke:#181818;stroke-width:1.0;"/><line style="stroke:#181818;stroke-width:1.0;" x1="233" x2="322" y1="334.7656" y2="334.7656"/><text fill="#000000" font-family="sans-serif" font-size="13" lengthAdjust="spacing" textLength="39" x="240" y="329.9092">Trigger</text><path d="M10,349.7656 L71,349.7656 L71,358.1172 L61,368.1172 L10,368.1172 L10,349.7656 " fill="#EEEEEE" style="stroke:#000000;stroke-width:1.5;"/><rect fill="none" height="325.1875" style="stroke:#000000;stroke-width:1.5;" width="676.5" x="10" y="349.7656"/><text fill="#000000" font-family="sans-serif" font-size="13" font-weight="bold" lengthAdjust="spacing" textLength="16" x="25" y="364.2607">alt</text><text fill="#000000" font-family="sans-serif" font-size="11" font-weight="bold" lengthAdjust="spacing" textLength="66" x="86" y="363.1846">[If tests fail]</text><polygon fill="#181818" points="244,386.4688,234,390.4688,244,394.4688,240,390.4688" style="stroke:#181818;stroke-width:1.0;"/><line style="stroke:#181818;stroke-width:1.0;stroke-dasharray:2.0,2.0;" x1="238" x2="327" y1="390.4688" y2="390.4688"/><text fill="#000000" font-family="sans-serif" font-size="13" lengthAdjust="spacing" textLength="71" x="250" y="385.6123">Notify failure</text><polygon fill="#181818" points="92,416.8203,82,420.8203,92,424.8203,88,420.8203" style="stroke:#181818;stroke-width:1.0;"/><line style="stroke:#181818;stroke-width:1.0;stroke-dasharray:2.0,2.0;" x1="86" x2="232" y1="420.8203" y2="420.8203"/><text fill="#000000" font-family="sans-serif" font-size="13" lengthAdjust="spacing" textLength="113" x="98" y="415.9639">Feedback on failure</text><line style="stroke:#000000;stroke-width:1.0;stroke-dasharray:2.0,2.0;" x1="10" x2="686.5" y1="429.8203" y2="429.8203"/><text fill="#000000" font-family="sans-serif" font-size="11" font-weight="bold" lengthAdjust="spacing" textLength="97" x="15" y="441.2393">[If tests succeed]</text><polygon fill="#181818" points="482,463.0078,492,467.0078,482,471.0078,486,467.0078" style="stroke:#181818;stroke-width:1.0;"/><line style="stroke:#181818;stroke-width:1.0;" x1="328" x2="488" y1="467.0078" y2="467.0078"/><text fill="#000000" font-family="sans-serif" font-size="13" lengthAdjust="spacing" textLength="39" x="335" y="462.1514">Trigger</text><path d="M20,482.0078 L81,482.0078 L81,490.3594 L71,500.3594 L20,500.3594 L20,482.0078 " fill="#EEEEEE" style="stroke:#000000;stroke-width:1.5;"/><rect fill="none" height="185.9453" style="stroke:#000000;stroke-width:1.5;" width="656.5" x="20" y="482.0078"/><text fill="#000000" font-family="sans-serif" font-size="13" font-weight="bold" lengthAdjust="spacing" textLength="16" x="35" y="496.5029">alt</text><text fill="#000000" font-family="sans-serif" font-size="11" font-weight="bold" lengthAdjust="spacing" textLength="66" x="96" y="495.4268">[If tests fail]</text><polygon fill="#181818" points="244,518.7109,234,522.7109,244,526.7109,240,522.7109" style="stroke:#181818;stroke-width:1.0;"/><line style="stroke:#181818;stroke-width:1.0;" x1="238" x2="493" y1="522.7109" y2="522.7109"/><text fill="#000000" font-family="sans-serif" font-size="13" lengthAdjust="spacing" textLength="71" x="250" y="517.8545">Notify failure</text><polygon fill="#181818" points="92,549.0625,82,553.0625,92,557.0625,88,553.0625" style="stroke:#181818;stroke-width:1.0;"/><line style="stroke:#181818;stroke-width:1.0;stroke-dasharray:2.0,2.0;" x1="86" x2="232" y1="553.0625" y2="553.0625"/><text fill="#000000" font-family="sans-serif" font-size="13" lengthAdjust="spacing" textLength="113" x="98" y="548.2061">Feedback on failure</text><line style="stroke:#000000;stroke-width:1.0;stroke-dasharray:2.0,2.0;" x1="20" x2="676.5" y1="562.0625" y2="562.0625"/><text fill="#000000" font-family="sans-serif" font-size="11" font-weight="bold" lengthAdjust="spacing" textLength="97" x="25" y="573.4814">[if tests succeed]</text><polygon fill="#181818" points="244,595.25,234,599.25,244,603.25,240,599.25" style="stroke:#181818;stroke-width:1.0;"/><line style="stroke:#181818;stroke-width:1.0;stroke-dasharray:2.0,2.0;" x1="238" x2="493" y1="599.25" y2="599.25"/><text fill="#000000" font-family="sans-serif" font-size="13" lengthAdjust="spacing" textLength="86" x="250" y="594.3936">Notify success</text><polygon fill="#181818" points="92,625.6016,82,629.6016,92,633.6016,88,629.6016" style="stroke:#181818;stroke-width:1.0;"/><line style="stroke:#181818;stroke-width:1.0;stroke-dasharray:2.0,2.0;" x1="86" x2="232" y1="629.6016" y2="629.6016"/><text fill="#000000" font-family="sans-serif" font-size="13" lengthAdjust="spacing" textLength="128" x="98" y="624.7451">Feedback on success</text><polygon fill="#181818" points="621.5,655.9531,631.5,659.9531,621.5,663.9531,625.5,659.9531" style="stroke:#181818;stroke-width:1.0;"/><line style="stroke:#181818;stroke-width:1.0;" x1="494" x2="627.5" y1="659.9531" y2="659.9531"/><text fill="#000000" font-family="sans-serif" font-size="13" lengthAdjust="spacing" textLength="69" x="501" y="655.0967">Deployment</text><rect fill="none" height="12.5781" id="_title" style="stroke:none;stroke-width:1.0;" width="206" x="489.5" y="5"/><text fill="#888888" font-family="sans-serif" font-size="10" lengthAdjust="spacing" textLength="206" x="489.5" y="15.3809">UML Sequence Diagram for GitHub Actions</text><rect fill="#E6E6E6" height="165.2656" id="_legend" rx="7.5" ry="7.5" style="stroke:#FFFFFF;stroke-width:1.0;" width="240" x="227.75" y="65.1875"/><text fill="#000000" font-family="sans-serif" font-size="14" lengthAdjust="spacing" textLength="4" x="233.75" y="85.7207"> </text><text fill="#000000" font-family="sans-serif" font-size="14" font-weight="bold" lengthAdjust="spacing" textLength="53" x="233.75" y="103.3301">Legend</text><text fill="#000000" font-family="sans-serif" font-size="14" lengthAdjust="spacing" textLength="4" x="233.75" y="120.9395"> </text><text fill="#000000" font-family="sans-serif" font-size="14" lengthAdjust="spacing" textLength="80" x="233.75" y="138.5488">Arrow-heads</text><text fill="#000000" font-family="sans-serif" font-size="14" lengthAdjust="spacing" textLength="16" x="233.75" y="162.5488">    </text><path d="M260.75,143.625 L260.75,147.625 L250.75,147.625 L250.75,149.625 L260.75,149.625 L260.75,153.625 L266.75,148.565 L260.75,143.625 " fill="#000000" style="stroke:;stroke-width:0.0;stroke-dasharray:;"/><text fill="#000000" font-family="sans-serif" font-size="14" lengthAdjust="spacing" textLength="134" x="275.75" y="158.1582">Synchronous method</text><line style="stroke:#000000;stroke-width:1.0;" x1="233.75" x2="413.75" y1="143.625" y2="143.625"/><line style="stroke:#000000;stroke-width:1.0;" x1="233.75" x2="413.75" y1="165.625" y2="165.625"/><line style="stroke:#000000;stroke-width:1.0;" x1="233.75" x2="233.75" y1="143.625" y2="165.625"/><line style="stroke:#000000;stroke-width:1.0;" x1="267.75" x2="267.75" y1="143.625" y2="165.625"/><line style="stroke:#000000;stroke-width:1.0;" x1="413.75" x2="413.75" y1="143.625" y2="165.625"/><text fill="#000000" font-family="sans-serif" font-size="14" lengthAdjust="spacing" textLength="4" x="233.75" y="182.1582"> </text><text fill="#000000" font-family="sans-serif" font-size="14" lengthAdjust="spacing" textLength="36" x="233.75" y="199.7676">Other</text><text fill="#000000" font-family="sans-serif" font-size="14" lengthAdjust="spacing" textLength="4" x="233.75" y="219.377"> </text><text fill="#000000" font-family="sans-serif" font-size="14" font-weight="bold" lengthAdjust="spacing" textLength="17" x="237.75" y="219.377">alt</text><text fill="#000000" font-family="sans-serif" font-size="14" lengthAdjust="spacing" textLength="27" x="254.75" y="219.377">-box</text><text fill="#000000" font-family="sans-serif" font-size="14" lengthAdjust="spacing" textLength="168" x="289.75" y="219.377">Occurs if [condition] is true</text><line style="stroke:#000000;stroke-width:1.0;" x1="233.75" x2="461.75" y1="204.8438" y2="204.8438"/><line style="stroke:#000000;stroke-width:1.0;" x1="233.75" x2="461.75" y1="222.4531" y2="222.4531"/><line style="stroke:#000000;stroke-width:1.0;" x1="233.75" x2="233.75" y1="204.8438" y2="222.4531"/><line style="stroke:#000000;stroke-width:1.0;" x1="285.75" x2="285.75" y1="204.8438" y2="222.4531"/><line style="stroke:#000000;stroke-width:1.0;" x1="461.75" x2="461.75" y1="204.8438" y2="222.4531"/><!--MD5=[56a7ddb74451951cab50143b53582b10]
@startuml

title "Azure deployment workflow"
header "UML Sequence Diagram for GitHub Actions"

skinparam legend {
  backgroundColor #E6E6E6
  entrySeparator #E6E6E6
  borderColor #FFFFFF
}

legend top

  <b>Legend</b>

  Arrow-heads
  |    <size:24><&arrow-right></size>|  Synchronous method |

  Other
  | <b>alt</b>-box | Occurs if [condition] is true |
endlegend

participant "Dev computer" as Dev
participant "Git" as Git
participant "Build & unit tests" as But
participant "Automated acceptance tests" as Auto
participant "Release" as Rel

Dev -> Git: Commit & push
Git -> But: Trigger
alt If tests fail
    But - -> Git: Notify failure
    Git - -> Dev: Feedback on failure
else If tests succeed
But -> Auto: Trigger
    alt If tests fail
    Auto -> Git: Notify failure
    Git - -> Dev: Feedback on failure
    else if tests succeed
        Auto - -> Git: Notify success
        Git - -> Dev: Feedback on success
        Auto -> Rel: Deployment
    end
end
@enduml

PlantUML version 1.2022.7(Mon Aug 22 19:01:30 CEST 2022)
(GPL source distribution)
Java Runtime: Java(TM) SE Runtime Environment
JVM: Java HotSpot(TM) 64-Bit Server VM
Default Encoding: UTF-8
Language: da
Country: DK
--></g></svg>