<?xml version="1.0" encoding="UTF-8" standalone="no"?><svg xmlns="http://www.w3.org/2000/svg" xmlns:xlink="http://www.w3.org/1999/xlink" contentStyleType="text/css" height="843px" preserveAspectRatio="none" style="width:795px;height:843px;background:#FFFFFF;" version="1.1" viewBox="0 0 795 843" width="795px" zoomAndPan="magnify"><defs/><g><rect fill="none" height="27.6094" id="_title" style="stroke:none;stroke-width:1.0;" width="370" x="208.5" y="23.5781"/><text fill="#000000" font-family="sans-serif" font-size="14" font-weight="bold" lengthAdjust="spacing" textLength="360" x="213.5" y="43.1113">Accessing Public Timeline As An Unauthorized User</text><rect fill="#ADD8E6" height="186.8125" style="stroke:#181818;stroke-width:1.0;" width="10" x="302.5" y="479.3594"/><rect fill="#FFFFFF" height="156.4609" style="stroke:#181818;stroke-width:1.0;" width="10" x="307.5" y="509.7109"/><line style="stroke:#181818;stroke-width:0.5;stroke-dasharray:5.0,5.0;" x1="22" x2="22" y1="416.6563" y2="761.2266"/><line style="stroke:#181818;stroke-width:0.5;stroke-dasharray:5.0,5.0;" x1="159" x2="159" y1="416.6563" y2="761.2266"/><line style="stroke:#181818;stroke-width:0.5;stroke-dasharray:5.0,5.0;" x1="307" x2="307" y1="416.6563" y2="761.2266"/><line style="stroke:#181818;stroke-width:0.5;stroke-dasharray:5.0,5.0;" x1="571" x2="571" y1="416.6563" y2="761.2266"/><line style="stroke:#181818;stroke-width:0.5;stroke-dasharray:5.0,5.0;" x1="749" x2="749" y1="416.6563" y2="761.2266"/><text fill="#000000" font-family="sans-serif" font-size="14" lengthAdjust="spacing" textLength="29" x="5" y="413.5801">User</text><ellipse cx="22.5" cy="347.5469" fill="#E2E2F0" rx="8" ry="8" style="stroke:#181818;stroke-width:0.5;"/><path d="M22.5,355.5469 L22.5,382.5469 M9.5,363.5469 L35.5,363.5469 M22.5,382.5469 L9.5,397.5469 M22.5,382.5469 L35.5,397.5469 " fill="none" style="stroke:#181818;stroke-width:0.5;"/><text fill="#000000" font-family="sans-serif" font-size="14" lengthAdjust="spacing" textLength="29" x="5" y="774.7598">User</text><ellipse cx="22.5" cy="786.3359" fill="#E2E2F0" rx="8" ry="8" style="stroke:#181818;stroke-width:0.5;"/><path d="M22.5,794.3359 L22.5,821.3359 M9.5,802.3359 L35.5,802.3359 M22.5,821.3359 L9.5,836.3359 M22.5,821.3359 L35.5,836.3359 " fill="none" style="stroke:#181818;stroke-width:0.5;"/><rect fill="#E2E2F0" height="31.6094" rx="2.5" ry="2.5" style="stroke:#181818;stroke-width:0.5;" width="77" x="121" y="384.0469"/><text fill="#000000" font-family="sans-serif" font-size="14" lengthAdjust="spacing" textLength="63" x="128" y="405.5801">Front End</text><rect fill="#E2E2F0" height="31.6094" rx="2.5" ry="2.5" style="stroke:#181818;stroke-width:0.5;" width="77" x="121" y="760.2266"/><text fill="#000000" font-family="sans-serif" font-size="14" lengthAdjust="spacing" textLength="63" x="128" y="781.7598">Front End</text><rect fill="#E2E2F0" height="31.6094" rx="2.5" ry="2.5" style="stroke:#181818;stroke-width:0.5;" width="35" x="290" y="384.0469"/><text fill="#000000" font-family="sans-serif" font-size="14" lengthAdjust="spacing" textLength="21" x="297" y="405.5801">API</text><rect fill="#E2E2F0" height="31.6094" rx="2.5" ry="2.5" style="stroke:#181818;stroke-width:0.5;" width="35" x="290" y="760.2266"/><text fill="#000000" font-family="sans-serif" font-size="14" lengthAdjust="spacing" textLength="21" x="297" y="781.7598">API</text><rect fill="#E2E2F0" height="31.6094" rx="2.5" ry="2.5" style="stroke:#181818;stroke-width:0.5;" width="97" x="523" y="384.0469"/><text fill="#000000" font-family="sans-serif" font-size="14" lengthAdjust="spacing" textLength="83" x="530" y="405.5801">Data-handler</text><rect fill="#E2E2F0" height="31.6094" rx="2.5" ry="2.5" style="stroke:#181818;stroke-width:0.5;" width="97" x="523" y="760.2266"/><text fill="#000000" font-family="sans-serif" font-size="14" lengthAdjust="spacing" textLength="83" x="530" y="781.7598">Data-handler</text><text fill="#000000" font-family="sans-serif" font-size="14" lengthAdjust="spacing" textLength="61" x="716" y="413.5801">Database</text><path d="M731.5,363.0469 C731.5,353.0469 749.5,353.0469 749.5,353.0469 C749.5,353.0469 767.5,353.0469 767.5,363.0469 L767.5,389.0469 C767.5,399.0469 749.5,399.0469 749.5,399.0469 C749.5,399.0469 731.5,399.0469 731.5,389.0469 L731.5,363.0469 " fill="#E2E2F0" style="stroke:#181818;stroke-width:1.5;"/><path d="M731.5,363.0469 C731.5,373.0469 749.5,373.0469 749.5,373.0469 C749.5,373.0469 767.5,373.0469 767.5,363.0469 " fill="none" style="stroke:#181818;stroke-width:1.5;"/><text fill="#000000" font-family="sans-serif" font-size="14" lengthAdjust="spacing" textLength="61" x="716" y="774.7598">Database</text><path d="M731.5,787.8359 C731.5,777.8359 749.5,777.8359 749.5,777.8359 C749.5,777.8359 767.5,777.8359 767.5,787.8359 L767.5,813.8359 C767.5,823.8359 749.5,823.8359 749.5,823.8359 C749.5,823.8359 731.5,823.8359 731.5,813.8359 L731.5,787.8359 " fill="#E2E2F0" style="stroke:#181818;stroke-width:1.5;"/><path d="M731.5,787.8359 C731.5,797.8359 749.5,797.8359 749.5,797.8359 C749.5,797.8359 767.5,797.8359 767.5,787.8359 " fill="none" style="stroke:#181818;stroke-width:1.5;"/><rect fill="#ADD8E6" height="186.8125" style="stroke:#181818;stroke-width:1.0;" width="10" x="302.5" y="479.3594"/><rect fill="#FFFFFF" height="156.4609" style="stroke:#181818;stroke-width:1.0;" width="10" x="307.5" y="509.7109"/><polygon fill="#181818" points="147.5,445.0078,157.5,449.0078,147.5,453.0078,151.5,449.0078" style="stroke:#181818;stroke-width:1.0;"/><line style="stroke:#181818;stroke-width:1.0;" x1="22.5" x2="153.5" y1="449.0078" y2="449.0078"/><text fill="#000000" font-family="sans-serif" font-size="13" lengthAdjust="spacing" textLength="113" x="29.5" y="444.1514">Accesses webpage</text><polygon fill="#181818" points="290.5,475.3594,300.5,479.3594,290.5,483.3594,294.5,479.3594" style="stroke:#181818;stroke-width:1.0;"/><line style="stroke:#181818;stroke-width:1.0;" x1="159.5" x2="296.5" y1="479.3594" y2="479.3594"/><text fill="#000000" font-family="sans-serif" font-size="13" lengthAdjust="spacing" textLength="96" x="166.5" y="474.5029">HTTP GET: {url}/</text><line style="stroke:#181818;stroke-width:1.0;" x1="569.5" x2="559.5" y1="509.7109" y2="505.7109"/><line style="stroke:#181818;stroke-width:1.0;" x1="569.5" x2="559.5" y1="509.7109" y2="513.7109"/><line style="stroke:#181818;stroke-width:1.0;" x1="317.5" x2="570.5" y1="509.7109" y2="509.7109"/><text fill="#000000" font-family="sans-serif" font-size="13" lengthAdjust="spacing" textLength="92" x="324.5" y="504.8545">GetSome(32, 0)</text><polygon fill="#181818" points="737.5,536.0625,747.5,540.0625,737.5,544.0625,741.5,540.0625" style="stroke:#181818;stroke-width:1.0;"/><line style="stroke:#181818;stroke-width:1.0;" x1="571.5" x2="743.5" y1="540.0625" y2="540.0625"/><text fill="#000000" font-family="sans-serif" font-size="13" lengthAdjust="spacing" textLength="154" x="578.5" y="535.2061">Queries 32 newest cheeps</text><polygon fill="#181818" points="582.5,599.1172,572.5,603.1172,582.5,607.1172,578.5,603.1172" style="stroke:#181818;stroke-width:1.0;"/><line style="stroke:#181818;stroke-width:1.0;stroke-dasharray:2.0,2.0;" x1="576.5" x2="748.5" y1="603.1172" y2="603.1172"/><text fill="#000000" font-family="sans-serif" font-size="13" lengthAdjust="spacing" textLength="49" x="588.5" y="565.5576">Returns:</text><text fill="#000000" font-family="sans-serif" font-size="13" lengthAdjust="spacing" textLength="144" x="588.5" y="581.9092">Up to 32 newest cheeps,</text><text fill="#000000" font-family="sans-serif" font-size="13" lengthAdjust="spacing" textLength="134" x="588.5" y="598.2607">and count of all cheeps</text><line style="stroke:#181818;stroke-width:1.0;" x1="308.5" x2="318.5" y1="666.1719" y2="662.1719"/><line style="stroke:#181818;stroke-width:1.0;" x1="308.5" x2="318.5" y1="666.1719" y2="670.1719"/><line style="stroke:#181818;stroke-width:1.0;stroke-dasharray:2.0,2.0;" x1="307.5" x2="570.5" y1="666.1719" y2="666.1719"/><text fill="#000000" font-family="sans-serif" font-size="13" lengthAdjust="spacing" textLength="49" x="324.5" y="628.6123">Returns:</text><text fill="#000000" font-family="sans-serif" font-size="13" lengthAdjust="spacing" textLength="230" x="324.5" y="644.9639">Paginated list of cheeps sorted by date,</text><text fill="#000000" font-family="sans-serif" font-size="13" lengthAdjust="spacing" textLength="134" x="324.5" y="661.3154">and count of all cheeps</text><polygon fill="#181818" points="170.5,708.875,160.5,712.875,170.5,716.875,166.5,712.875" style="stroke:#181818;stroke-width:1.0;"/><line style="stroke:#181818;stroke-width:1.0;stroke-dasharray:2.0,2.0;" x1="164.5" x2="306.5" y1="712.875" y2="712.875"/><text fill="#000000" font-family="sans-serif" font-size="13" lengthAdjust="spacing" textLength="98" x="176.5" y="691.667">HTTP Response:</text><text fill="#000000" font-family="sans-serif" font-size="13" lengthAdjust="spacing" textLength="124" x="176.5" y="708.0186">text/html with cheeps</text><polygon fill="#181818" points="33.5,739.2266,23.5,743.2266,33.5,747.2266,29.5,743.2266" style="stroke:#181818;stroke-width:1.0;"/><line style="stroke:#181818;stroke-width:1.0;stroke-dasharray:2.0,2.0;" x1="27.5" x2="158.5" y1="743.2266" y2="743.2266"/><text fill="#000000" font-family="sans-serif" font-size="13" lengthAdjust="spacing" textLength="103" x="39.5" y="738.3701">Renders webpage</text><rect fill="none" height="12.5781" id="_title" style="stroke:none;stroke-width:1.0;" width="228" x="559" y="5"/><text fill="#888888" font-family="sans-serif" font-size="10" lengthAdjust="spacing" textLength="228" x="559" y="15.3809">Sequence Diagram for Message- and Datataflow</text><rect fill="#E6E6E6" height="264.8594" id="_legend" rx="7.5" ry="7.5" style="stroke:#FFFFFF;stroke-width:1.0;" width="258" x="264.5" y="65.1875"/><text fill="#000000" font-family="sans-serif" font-size="14" lengthAdjust="spacing" textLength="4" x="270.5" y="85.7207"> </text><text fill="#000000" font-family="sans-serif" font-size="14" font-weight="bold" lengthAdjust="spacing" textLength="53" x="270.5" y="103.3301">Legend</text><text fill="#000000" font-family="sans-serif" font-size="14" lengthAdjust="spacing" textLength="4" x="270.5" y="120.9395"> </text><text fill="#000000" font-family="sans-serif" font-size="14" lengthAdjust="spacing" textLength="52" x="270.5" y="138.5488">Lifelines</text><rect fill="#ADD8E6" height="17.6094" style="stroke:none;stroke-width:1.0;" width="44" x="270.5" y="143.625"/><text fill="#000000" font-family="sans-serif" font-size="14" lengthAdjust="spacing" textLength="28" x="270.5" y="158.1582">       </text><text fill="#000000" font-family="sans-serif" font-size="14" lengthAdjust="spacing" textLength="143" x="318.5" y="158.1582">Async method's lifeline</text><rect fill="#FFFFFF" height="17.6094" style="stroke:none;stroke-width:1.0;" width="44" x="270.5" y="161.2344"/><text fill="#000000" font-family="sans-serif" font-size="14" lengthAdjust="spacing" textLength="44" x="270.5" y="175.7676">           </text><text fill="#000000" font-family="sans-serif" font-size="14" lengthAdjust="spacing" textLength="194" x="318.5" y="175.7676">Async method's lifeline, nested</text><line style="stroke:#000000;stroke-width:1.0;" x1="270.5" x2="516.5" y1="143.625" y2="143.625"/><line style="stroke:#000000;stroke-width:1.0;" x1="270.5" x2="516.5" y1="161.2344" y2="161.2344"/><line style="stroke:#000000;stroke-width:1.0;" x1="270.5" x2="516.5" y1="178.8438" y2="178.8438"/><line style="stroke:#000000;stroke-width:1.0;" x1="270.5" x2="270.5" y1="143.625" y2="178.8438"/><line style="stroke:#000000;stroke-width:1.0;" x1="314.5" x2="314.5" y1="143.625" y2="178.8438"/><line style="stroke:#000000;stroke-width:1.0;" x1="516.5" x2="516.5" y1="143.625" y2="178.8438"/><text fill="#000000" font-family="sans-serif" font-size="14" lengthAdjust="spacing" textLength="4" x="270.5" y="195.377"> </text><text fill="#000000" font-family="sans-serif" font-size="14" lengthAdjust="spacing" textLength="80" x="270.5" y="212.9863">Arrow-heads</text><text fill="#000000" font-family="sans-serif" font-size="14" lengthAdjust="spacing" textLength="16" x="270.5" y="236.9863">    </text><path d="M297.5,218.0625 L297.5,222.0625 L287.5,222.0625 L287.5,224.0625 L297.5,224.0625 L297.5,228.0625 L303.5,223.0025 L297.5,218.0625 " fill="#000000" style="stroke:;stroke-width:0.0;stroke-dasharray:;"/><text fill="#000000" font-family="sans-serif" font-size="14" lengthAdjust="spacing" textLength="134" x="335.5" y="232.5957">Synchronous method</text><text fill="#000000" font-family="sans-serif" font-size="14" lengthAdjust="spacing" textLength="16" x="270.5" y="262.1426">    </text><text fill="#000000" font-family="sans-serif" font-size="20" lengthAdjust="spacing" textLength="17" x="286.5" y="260.8242">→</text><text fill="#000000" font-family="sans-serif" font-size="14" lengthAdjust="spacing" textLength="24" x="303.5" y="262.1426">      </text><text fill="#000000" font-family="sans-serif" font-size="14" lengthAdjust="spacing" textLength="96" x="335.5" y="254.5957">Async methods</text><line style="stroke:#000000;stroke-width:1.0;" x1="270.5" x2="473.5" y1="218.0625" y2="218.0625"/><line style="stroke:#000000;stroke-width:1.0;" x1="270.5" x2="473.5" y1="240.0625" y2="240.0625"/><line style="stroke:#000000;stroke-width:1.0;" x1="270.5" x2="473.5" y1="265.2188" y2="265.2188"/><line style="stroke:#000000;stroke-width:1.0;" x1="270.5" x2="270.5" y1="218.0625" y2="265.2188"/><line style="stroke:#000000;stroke-width:1.0;" x1="327.5" x2="327.5" y1="218.0625" y2="265.2188"/><line style="stroke:#000000;stroke-width:1.0;" x1="473.5" x2="473.5" y1="218.0625" y2="265.2188"/><text fill="#000000" font-family="sans-serif" font-size="14" lengthAdjust="spacing" textLength="4" x="270.5" y="281.752"> </text><text fill="#000000" font-family="sans-serif" font-size="14" lengthAdjust="spacing" textLength="36" x="270.5" y="299.3613">Other</text><text fill="#000000" font-family="sans-serif" font-size="14" lengthAdjust="spacing" textLength="4" x="270.5" y="318.9707"> </text><text fill="#000000" font-family="sans-serif" font-size="14" font-weight="bold" lengthAdjust="spacing" textLength="17" x="274.5" y="318.9707">alt</text><text fill="#000000" font-family="sans-serif" font-size="14" lengthAdjust="spacing" textLength="27" x="291.5" y="318.9707">-box</text><text fill="#000000" font-family="sans-serif" font-size="14" lengthAdjust="spacing" textLength="168" x="326.5" y="318.9707">Occurs if [condition] is true</text><line style="stroke:#000000;stroke-width:1.0;" x1="270.5" x2="498.5" y1="304.4375" y2="304.4375"/><line style="stroke:#000000;stroke-width:1.0;" x1="270.5" x2="498.5" y1="322.0469" y2="322.0469"/><line style="stroke:#000000;stroke-width:1.0;" x1="270.5" x2="270.5" y1="304.4375" y2="322.0469"/><line style="stroke:#000000;stroke-width:1.0;" x1="322.5" x2="322.5" y1="304.4375" y2="322.0469"/><line style="stroke:#000000;stroke-width:1.0;" x1="498.5" x2="498.5" y1="304.4375" y2="322.0469"/><!--MD5=[e8abcb2d54392165aa9e8b3dbb2e4564]
@startuml

header Sequence Diagram for Message- and Datataflow
Title Accessing Public Timeline As An Unauthorized User

actor "User" as Us
participant "Front End" as Fe
participant "API" as Api
participant "Data-handler" as Dh
database "Database" as Db 

skinparam legend {
  backgroundColor #E6E6E6
  entrySeparator #E6E6E6
  borderColor #FFFFFF
}

legend top

  <b>Legend</b>

  Lifelines
  |     <#LightBlue>       | Async method's lifeline |
  |     <#white>           | Async method's lifeline, nested |

  Arrow-heads
  |    <size:24><&arrow-right></size>|  Synchronous method |
  |    <size:20><U+2192></size>      |  Async methods |

  Other
  | <b>alt</b>-box | Occurs if [condition] is true |
endlegend

Us -> Fe: Accesses webpage
Fe -> Api: HTTP GET: {url}/
Activate Api #LightBlue
    Api ->> Dh: GetSome(32, 0)
    Activate Api 
        Dh -> Db: Queries 32 newest cheeps
        Db - -> Dh: Returns:\nUp to 32 newest cheeps,\nand count of all cheeps
        Dh - ->> Api: Returns:\nPaginated list of cheeps sorted by date,\nand count of all cheeps
    Deactivate Api
Deactivate Api
Api - -> Fe: HTTP Response:\ntext/html with cheeps
Fe - -> Us: Renders webpage
@enduml

PlantUML version 1.2022.7(Mon Aug 22 19:01:30 CEST 2022)
(GPL source distribution)
Java Runtime: Java(TM) SE Runtime Environment
JVM: Java HotSpot(TM) 64-Bit Server VM
Default Encoding: UTF-8
Language: da
Country: DK
--></g></svg>