<?xml version="1.0" encoding="UTF-8" standalone="no"?><svg xmlns="http://www.w3.org/2000/svg" xmlns:xlink="http://www.w3.org/1999/xlink" contentStyleType="text/css" height="1013px" preserveAspectRatio="none" style="width:321px;height:1013px;background:#FFFFFF;" version="1.1" viewBox="0 0 321 1013" width="321px" zoomAndPan="magnify"><defs/><g><rect fill="none" height="12.5781" style="stroke:none;stroke-width:1.0;" width="170" x="138" y="10"/><text fill="#888888" font-family="sans-serif" font-size="10" lengthAdjust="spacing" textLength="170" x="138" y="20.3809">Activity diagram for group's workflow</text><rect fill="none" height="27.6094" id="_title" style="stroke:none;stroke-width:1.0;" width="171" x="73.5" y="28.5781"/><text fill="#000000" font-family="sans-serif" font-size="14" font-weight="bold" lengthAdjust="spacing" textLength="161" x="78.5" y="48.1113">Group's work activities</text><ellipse cx="147" cy="72.1875" fill="#222222" rx="10" ry="10" style="stroke:#222222;stroke-width:1.0;"/><rect fill="#F1F1F1" height="35.0938" rx="12.5" ry="12.5" style="stroke:#181818;stroke-width:0.5;" width="166" x="64" y="102.1875"/><text fill="#000000" font-family="sans-serif" font-size="12" lengthAdjust="spacing" textLength="146" x="74" y="124.6445">Task is thought off or given</text><rect fill="#F1F1F1" height="35.0938" rx="12.5" ry="12.5" style="stroke:#181818;stroke-width:0.5;" width="103" x="95.5" y="157.2813"/><text fill="#000000" font-family="sans-serif" font-size="12" lengthAdjust="spacing" textLength="83" x="105.5" y="179.7383">Issue is written</text><rect fill="#F1F1F1" height="35.0938" rx="12.5" ry="12.5" style="stroke:#181818;stroke-width:0.5;" width="148" x="73" y="212.375"/><text fill="#000000" font-family="sans-serif" font-size="12" lengthAdjust="spacing" textLength="128" x="83" y="234.832">Members are assigned</text><rect fill="#F1F1F1" height="35.0938" rx="12.5" ry="12.5" style="stroke:#181818;stroke-width:0.5;" width="208" x="43" y="267.4688"/><text fill="#000000" font-family="sans-serif" font-size="12" lengthAdjust="spacing" textLength="188" x="53" y="289.9258">Issue is moved to "Being planned"</text><rect fill="#F1F1F1" height="35.0938" rx="12.5" ry="12.5" style="stroke:#181818;stroke-width:0.5;" width="126" x="84" y="322.5625"/><text fill="#000000" font-family="sans-serif" font-size="12" lengthAdjust="spacing" textLength="106" x="94" y="345.0195">Solution is planned</text><rect fill="#F1F1F1" height="35.0938" rx="12.5" ry="12.5" style="stroke:#181818;stroke-width:0.5;" width="166" x="64" y="377.6563"/><text fill="#000000" font-family="sans-serif" font-size="12" lengthAdjust="spacing" textLength="146" x="74" y="400.1133">A feature branch is created</text><rect fill="#F1F1F1" height="35.0938" rx="12.5" ry="12.5" style="stroke:#181818;stroke-width:0.5;" width="190" x="52" y="476.75"/><text fill="#000000" font-family="sans-serif" font-size="12" lengthAdjust="spacing" textLength="170" x="62" y="499.207">Issue is moved to "Being build"</text><rect fill="#555555" height="6" rx="2.5" ry="2.5" style="stroke:#555555;stroke-width:1.0;" width="272" x="11" y="531.8438"/><rect fill="#F1F1F1" height="35.0938" rx="12.5" ry="12.5" style="stroke:#181818;stroke-width:0.5;" width="108" x="23" y="557.8438"/><text fill="#000000" font-family="sans-serif" font-size="12" lengthAdjust="spacing" textLength="88" x="33" y="580.3008">Solution is build</text><rect fill="#F1F1F1" height="35.0938" rx="12.5" ry="12.5" style="stroke:#181818;stroke-width:0.5;" width="112" x="159" y="557.8438"/><text fill="#000000" font-family="sans-serif" font-size="12" lengthAdjust="spacing" textLength="92" x="169" y="580.3008">Issue is updated</text><rect fill="#555555" height="6" rx="2.5" ry="2.5" style="stroke:#555555;stroke-width:1.0;" width="272" x="11" y="612.9375"/><rect fill="#F1F1F1" height="35.0938" rx="12.5" ry="12.5" style="stroke:#181818;stroke-width:0.5;" width="145" x="74.5" y="638.9375"/><text fill="#000000" font-family="sans-serif" font-size="12" lengthAdjust="spacing" textLength="125" x="84.5" y="661.3945">Pull-request is opened</text><rect fill="#F1F1F1" height="35.0938" rx="12.5" ry="12.5" style="stroke:#181818;stroke-width:0.5;" width="176" x="59" y="694.0313"/><text fill="#000000" font-family="sans-serif" font-size="12" lengthAdjust="spacing" textLength="156" x="69" y="716.4883">Issue is moved to "In review"</text><rect fill="#F1F1F1" height="35.0938" rx="12.5" ry="12.5" style="stroke:#181818;stroke-width:0.5;" width="229" x="32.5" y="749.125"/><text fill="#000000" font-family="sans-serif" font-size="12" lengthAdjust="spacing" textLength="209" x="42.5" y="771.582">Team members review the pull-requst</text><polygon fill="#F1F1F1" points="147,432.75,159,444.75,147,456.75,135,444.75,147,432.75" style="stroke:#181818;stroke-width:0.5;"/><polygon fill="#F1F1F1" points="96,804.2188,198,804.2188,210,816.2188,198,828.2188,96,828.2188,84,816.2188,96,804.2188" style="stroke:#181818;stroke-width:0.5;"/><text fill="#000000" font-family="sans-serif" font-size="11" lengthAdjust="spacing" textLength="102" x="96" y="820.7197">Aprroved for merge?</text><text fill="#000000" font-family="sans-serif" font-size="11" lengthAdjust="spacing" textLength="13" x="210" y="813.8018">No</text><rect fill="#F1F1F1" height="35.0938" rx="12.5" ry="12.5" style="stroke:#181818;stroke-width:0.5;" width="123" x="85.5" y="870.4717"/><text fill="#000000" font-family="sans-serif" font-size="12" lengthAdjust="spacing" textLength="103" x="95.5" y="892.9287">Merge pull-request</text><rect fill="#F1F1F1" height="35.0938" rx="12.5" ry="12.5" style="stroke:#181818;stroke-width:0.5;" width="158" x="68" y="925.5654"/><text fill="#000000" font-family="sans-serif" font-size="12" lengthAdjust="spacing" textLength="138" x="78" y="948.0225">Issue is moved to "Done"</text><ellipse cx="147" cy="991.6592" fill="none" rx="11" ry="11" style="stroke:#222222;stroke-width:1.0;"/><ellipse cx="147" cy="991.6592" fill="#222222" rx="6" ry="6" style="stroke:#111111;stroke-width:1.0;"/><line style="stroke:#181818;stroke-width:1.0;" x1="147" x2="147" y1="82.1875" y2="102.1875"/><polygon fill="#181818" points="143,92.1875,147,102.1875,151,92.1875,147,96.1875" style="stroke:#181818;stroke-width:1.0;"/><line style="stroke:#181818;stroke-width:1.0;" x1="147" x2="147" y1="137.2813" y2="157.2813"/><polygon fill="#181818" points="143,147.2813,147,157.2813,151,147.2813,147,151.2813" style="stroke:#181818;stroke-width:1.0;"/><line style="stroke:#181818;stroke-width:1.0;" x1="147" x2="147" y1="192.375" y2="212.375"/><polygon fill="#181818" points="143,202.375,147,212.375,151,202.375,147,206.375" style="stroke:#181818;stroke-width:1.0;"/><line style="stroke:#181818;stroke-width:1.0;" x1="147" x2="147" y1="247.4688" y2="267.4688"/><polygon fill="#181818" points="143,257.4688,147,267.4688,151,257.4688,147,261.4688" style="stroke:#181818;stroke-width:1.0;"/><line style="stroke:#181818;stroke-width:1.0;" x1="147" x2="147" y1="302.5625" y2="322.5625"/><polygon fill="#181818" points="143,312.5625,147,322.5625,151,312.5625,147,316.5625" style="stroke:#181818;stroke-width:1.0;"/><line style="stroke:#181818;stroke-width:1.0;" x1="147" x2="147" y1="357.6563" y2="377.6563"/><polygon fill="#181818" points="143,367.6563,147,377.6563,151,367.6563,147,371.6563" style="stroke:#181818;stroke-width:1.0;"/><line style="stroke:#181818;stroke-width:1.0;" x1="77" x2="77" y1="537.8438" y2="557.8438"/><polygon fill="#181818" points="73,547.8438,77,557.8438,81,547.8438,77,551.8438" style="stroke:#181818;stroke-width:1.0;"/><line style="stroke:#181818;stroke-width:1.0;" x1="215" x2="215" y1="537.8438" y2="557.8438"/><polygon fill="#181818" points="211,547.8438,215,557.8438,219,547.8438,215,551.8438" style="stroke:#181818;stroke-width:1.0;"/><line style="stroke:#181818;stroke-width:1.0;" x1="77" x2="77" y1="592.9375" y2="612.9375"/><polygon fill="#181818" points="73,602.9375,77,612.9375,81,602.9375,77,606.9375" style="stroke:#181818;stroke-width:1.0;"/><line style="stroke:#181818;stroke-width:1.0;" x1="215" x2="215" y1="592.9375" y2="612.9375"/><polygon fill="#181818" points="211,602.9375,215,612.9375,219,602.9375,215,606.9375" style="stroke:#181818;stroke-width:1.0;"/><line style="stroke:#181818;stroke-width:1.0;" x1="147" x2="147" y1="511.8438" y2="531.8438"/><polygon fill="#181818" points="143,521.8438,147,531.8438,151,521.8438,147,525.8438" style="stroke:#181818;stroke-width:1.0;"/><line style="stroke:#181818;stroke-width:1.0;" x1="147" x2="147" y1="618.9375" y2="638.9375"/><polygon fill="#181818" points="143,628.9375,147,638.9375,151,628.9375,147,632.9375" style="stroke:#181818;stroke-width:1.0;"/><line style="stroke:#181818;stroke-width:1.0;" x1="147" x2="147" y1="674.0313" y2="694.0313"/><polygon fill="#181818" points="143,684.0313,147,694.0313,151,684.0313,147,688.0313" style="stroke:#181818;stroke-width:1.0;"/><line style="stroke:#181818;stroke-width:1.0;" x1="147" x2="147" y1="729.125" y2="749.125"/><polygon fill="#181818" points="143,739.125,147,749.125,151,739.125,147,743.125" style="stroke:#181818;stroke-width:1.0;"/><line style="stroke:#181818;stroke-width:1.0;" x1="147" x2="147" y1="456.75" y2="476.75"/><polygon fill="#181818" points="143,466.75,147,476.75,151,466.75,147,470.75" style="stroke:#181818;stroke-width:1.0;"/><line style="stroke:#181818;stroke-width:1.0;" x1="210" x2="295" y1="816.2188" y2="816.2188"/><polygon fill="#181818" points="291,640.4844,295,630.4844,299,640.4844,295,636.4844" style="stroke:#181818;stroke-width:1.0;"/><line style="stroke:#181818;stroke-width:1.0;" x1="295" x2="295" y1="444.75" y2="816.2188"/><line style="stroke:#181818;stroke-width:1.0;" x1="295" x2="159" y1="444.75" y2="444.75"/><polygon fill="#181818" points="169,440.75,159,444.75,169,448.75,165,444.75" style="stroke:#181818;stroke-width:1.0;"/><line style="stroke:#181818;stroke-width:1.0;" x1="147" x2="147" y1="784.2188" y2="804.2188"/><polygon fill="#181818" points="143,794.2188,147,804.2188,151,794.2188,147,798.2188" style="stroke:#181818;stroke-width:1.0;"/><line style="stroke:#181818;stroke-width:1.0;" x1="147" x2="147" y1="412.75" y2="432.75"/><polygon fill="#181818" points="143,422.75,147,432.75,151,422.75,147,426.75" style="stroke:#181818;stroke-width:1.0;"/><line style="stroke:#181818;stroke-width:1.0;" x1="147" x2="147" y1="828.2188" y2="870.4717"/><polygon fill="#181818" points="143,860.4717,147,870.4717,151,860.4717,147,864.4717" style="stroke:#181818;stroke-width:1.0;"/><text fill="#000000" font-family="sans-serif" font-size="11" lengthAdjust="spacing" textLength="20" x="151" y="850.5547">Yes</text><line style="stroke:#181818;stroke-width:1.0;" x1="147" x2="147" y1="905.5654" y2="925.5654"/><polygon fill="#181818" points="143,915.5654,147,925.5654,151,915.5654,147,919.5654" style="stroke:#181818;stroke-width:1.0;"/><line style="stroke:#181818;stroke-width:1.0;" x1="147" x2="147" y1="960.6592" y2="980.6592"/><polygon fill="#181818" points="143,970.6592,147,980.6592,151,970.6592,147,974.6592" style="stroke:#181818;stroke-width:1.0;"/><!--MD5=[18316735ca3c5e23cf5b0f9fab4f5df6]
@startuml team_workflow
header Activity diagram for group's workflow
title Group's work activities 
start
:Task is thought off or given;
:Issue is written;
:Members are assigned;
:Issue is moved to "Being planned";
:Solution is planned;
:A feature branch is created; 
repeat
    :Issue is moved to "Being build";
    fork
        :Solution is build;
    fork again
        :Issue is updated;
    endfork
    :Pull-request is opened;
    :Issue is moved to "In review";
    :Team members review the pull-requst;
repeat while (Aprroved for merge?) is (No)
->Yes;
:Merge pull-request;
:Issue is moved to "Done";
stop
@enduml

PlantUML version 1.2022.7(Mon Aug 22 19:01:30 CEST 2022)
(GPL source distribution)
Java Runtime: Java(TM) SE Runtime Environment
JVM: Java HotSpot(TM) 64-Bit Server VM
Default Encoding: UTF-8
Language: da
Country: DK
--></g></svg>