<?xml version="1.0" encoding="UTF-8" standalone="no"?><svg xmlns="http://www.w3.org/2000/svg" xmlns:xlink="http://www.w3.org/1999/xlink" contentStyleType="text/css" height="279px" preserveAspectRatio="none" style="width:339px;height:279px;background:#FFFFFF;" version="1.1" viewBox="0 0 339 279" width="339px" zoomAndPan="magnify"><defs/><g><rect fill="none" height="12.5781" style="stroke:none;stroke-width:1.0;" width="101" x="225" y="10"/><text fill="#888888" font-family="sans-serif" font-size="10" lengthAdjust="spacing" textLength="101" x="225" y="20.3809">User activities legend</text><rect fill="none" height="27.6094" id="_title" style="stroke:none;stroke-width:1.0;" width="306" x="15" y="28.5781"/><text fill="#000000" font-family="sans-serif" font-size="14" font-weight="bold" lengthAdjust="spacing" textLength="296" x="20" y="48.1113">Legend for User activities activity diagram</text><path d="M89,62.1875 L89,71.3633 L69,75.3633 L89,79.3633 L89,88.5391 A0,0 0 0 0 89,88.5391 L297,88.5391 A0,0 0 0 0 297,88.5391 L297,72.1875 L287,62.1875 L89,62.1875 A0,0 0 0 0 89,62.1875 " fill="#FEFFDD" style="stroke:#181818;stroke-width:0.5;"/><path d="M287,62.1875 L287,72.1875 L297,72.1875 L287,62.1875 " fill="#FEFFDD" style="stroke:#181818;stroke-width:0.5;"/><text fill="#000000" font-family="sans-serif" font-size="13" lengthAdjust="spacing" textLength="187" x="95" y="80.6826">Goes back to diagram beginning</text><ellipse cx="58" cy="75.3633" fill="none" rx="11" ry="11" style="stroke:#222222;stroke-width:1.0;"/><ellipse cx="58" cy="75.3633" fill="#222222" rx="6" ry="6" style="stroke:#111111;stroke-width:1.0;"/><path d="M97,102.9102 L97,112.0859 L77,116.0859 L97,120.0859 L97,129.2617 A0,0 0 0 0 97,129.2617 L148,129.2617 A0,0 0 0 0 148,129.2617 L148,112.9102 L138,102.9102 L97,102.9102 A0,0 0 0 0 97,102.9102 " fill="#FEFFDD" style="stroke:#181818;stroke-width:0.5;"/><path d="M138,102.9102 L138,112.9102 L148,112.9102 L138,102.9102 " fill="#FEFFDD" style="stroke:#181818;stroke-width:0.5;"/><text fill="#000000" font-family="sans-serif" font-size="13" lengthAdjust="spacing" textLength="30" x="103" y="121.4053">Page</text><rect fill="#23D96C" height="35.0938" rx="12.5" ry="12.5" style="stroke:#181818;stroke-width:0.5;" width="38" x="39" y="98.5391"/><text fill="#000000" font-family="sans-serif" font-size="12" lengthAdjust="spacing" textLength="18" x="49" y="120.9961">      </text><path d="M97,148.0039 L97,157.1797 L77,161.1797 L97,165.1797 L97,174.3555 A0,0 0 0 0 97,174.3555 L299,174.3555 A0,0 0 0 0 299,174.3555 L299,158.0039 L289,148.0039 L97,148.0039 A0,0 0 0 0 97,148.0039 " fill="#FEFFDD" style="stroke:#181818;stroke-width:0.5;"/><path d="M289,148.0039 L289,158.0039 L299,158.0039 L289,148.0039 " fill="#FEFFDD" style="stroke:#181818;stroke-width:0.5;"/><text fill="#000000" font-family="sans-serif" font-size="13" lengthAdjust="spacing" textLength="181" x="103" y="166.499">Page element the user looks at</text><rect fill="#955ACC" height="35.0938" rx="12.5" ry="12.5" style="stroke:#181818;stroke-width:0.5;" width="38" x="39" y="143.6328"/><text fill="#000000" font-family="sans-serif" font-size="12" lengthAdjust="spacing" textLength="18" x="49" y="166.0898">      </text><path d="M97,193.0977 L97,202.2734 L77,206.2734 L97,210.2734 L97,219.4492 A0,0 0 0 0 97,219.4492 L239,219.4492 A0,0 0 0 0 239,219.4492 L239,203.0977 L229,193.0977 L97,193.0977 A0,0 0 0 0 97,193.0977 " fill="#FEFFDD" style="stroke:#181818;stroke-width:0.5;"/><path d="M229,193.0977 L229,203.0977 L239,203.0977 L229,193.0977 " fill="#FEFFDD" style="stroke:#181818;stroke-width:0.5;"/><text fill="#000000" font-family="sans-serif" font-size="13" lengthAdjust="spacing" textLength="121" x="103" y="211.5928">User action or button</text><rect fill="#4FA7C9" height="35.0938" rx="12.5" ry="12.5" style="stroke:#181818;stroke-width:0.5;" width="38" x="39" y="188.7266"/><text fill="#000000" font-family="sans-serif" font-size="12" lengthAdjust="spacing" textLength="18" x="49" y="211.1836">      </text><path d="M97,238.1914 L97,247.3672 L77,251.3672 L97,255.3672 L97,264.543 A0,0 0 0 0 97,264.543 L166,264.543 A0,0 0 0 0 166,264.543 L166,248.1914 L156,238.1914 L97,238.1914 A0,0 0 0 0 97,238.1914 " fill="#FEFFDD" style="stroke:#181818;stroke-width:0.5;"/><path d="M156,238.1914 L156,248.1914 L166,248.1914 L156,238.1914 " fill="#FEFFDD" style="stroke:#181818;stroke-width:0.5;"/><text fill="#000000" font-family="sans-serif" font-size="13" lengthAdjust="spacing" textLength="48" x="103" y="256.6865">Process</text><rect fill="#BF4A3D" height="35.0938" rx="12.5" ry="12.5" style="stroke:#181818;stroke-width:0.5;" width="38" x="39" y="233.8203"/><text fill="#000000" font-family="sans-serif" font-size="12" lengthAdjust="spacing" textLength="18" x="49" y="256.2773">      </text><!--MD5=[94248fdea3ea13be034771f12c44fff5]
@startuml user_activities_legend
header User activities legend
title Legend for User activities activity diagram
stop
note right: Goes back to diagram beginning
 #23d96c:      ;
note right: Page
kill
 #955acc:      ;
note right: Page element the user looks at
kill
 #4fa7c9:      ;
note right: User action or button
kill
 #bf4a3d:      ;
note right: Process
kill
@enduml

PlantUML version 1.2022.7(Mon Aug 22 19:01:30 CEST 2022)
(GPL source distribution)
Java Runtime: Java(TM) SE Runtime Environment
JVM: Java HotSpot(TM) 64-Bit Server VM
Default Encoding: UTF-8
Language: da
Country: DK
--></g></svg>